<svg xmlns="http://www.w3.org/2000/svg" width="500" height="500" viewBox="0 0 500 500">
  <defs>
    <style>
      .cls-1 {
        fill: #fff;
      }

      .cls-2 {
        fill: #00b1d0;
      }

      .cls-3 {
        fill: #1d1d1b;
      }

      .cls-4 {
        fill: #1d1d1a;
      }

      .cls-5 {
        fill: #e5d71a;
      }

      .cls-6 {
        fill: #81ff5c;
      }

      .cls-7, .cls-8 {
        fill: none;
        stroke-miterlimit: 10;
      }

      .cls-7 {
        stroke: #1d1d1a;
        stroke-width: 10px;
      }

      .cls-8 {
        stroke: #1d1d1b;
        stroke-width: 15px;
        stroke-dasharray: 12;
      }
    </style>
  </defs>
  <g id="background">
    <rect class="cls-1" width="500" height="500"/>
  </g>
  <g id="network" class="parts" opacity='1'>
    <path class="cls-2" d="M350.39,223.67c7.27-30.78,19.56-51.52,19.68-51.72l-6.43-3.86-6.43-3.87c-.54.91-13.44,22.58-21.3,55.49a200.57,200.57,0,0,0-4.22,72.7,212.84,212.84,0,0,0-24.72-25,208.36,208.36,0,0,0-77.25-41.74c-35.81-10.53-76.07-12.44-119.65-5.66l2.31,14.82c41.19-6.41,79.09-4.69,112.65,5.1a193.45,193.45,0,0,1,71.64,38.41,197.06,197.06,0,0,1,32.16,34.92A223,223,0,0,0,255.63,285c-29.19-5.65-49.76-3.8-50.63-3.72l1.41,14.93c.19,0,19.7-1.72,46.89,3.62,24.92,4.9,61.63,16.9,95,46.27l5-5.63,7-2.74c-.12-.31-.82-2-2.15-4.85C343.77,299.47,341.16,262.75,350.39,223.67Z"/>
    <g>
      <path class="cls-3" d="M250.12,433.9v-15c3.84,0,7.72-.14,11.53-.4l1,15C258.51,433.75,254.29,433.89,250.12,433.9Zm-12.54-.42c-4.16-.27-8.36-.7-12.48-1.26l2-14.86c3.79.51,7.65.9,11.47,1.16Zm37.56-1.29-2-14.86c3.8-.52,7.62-1.18,11.36-1.95l3,14.69C283.44,430.91,279.28,431.62,275.14,432.19Zm-62.42-2.08c-4.08-.84-8.19-1.83-12.21-2.95l4-14.45c3.69,1,7.46,1.94,11.2,2.71Zm87-3-4.05-14.45c3.68-1,7.38-2.2,11-3.49l5,14.13C307.76,424.69,303.73,426,299.72,427.1Zm-111.18-3.73c-3.93-1.39-7.86-2.94-11.7-4.6l6-13.76c3.52,1.52,7.14,2.95,10.74,4.23Zm134.8-4.68-6-13.76c3.5-1.52,7-3.19,10.39-4.95l6.92,13.31C331,415.21,327.16,417,323.34,418.69Zm-157.85-5.32c-3.7-1.92-7.38-4-11-6.16l7.8-12.82c3.27,2,6.66,3.9,10,5.66Zm180.1-6.24-7.8-12.81c3.26-2,6.5-4.12,9.63-6.33l8.66,12.25C352.67,402.64,349.14,405,345.59,407.13ZM144,400.32c-3.4-2.4-6.77-5-10-7.59l9.47-11.64c3,2.42,6.07,4.77,9.19,7Zm222-7.68L356.6,381c3-2.42,5.89-5,8.68-7.59l10.25,11C372.49,387.23,369.3,390,366.07,392.64Zm-241.5-8.16c-3-2.84-6-5.82-8.88-8.87l11-10.25c2.62,2.8,5.37,5.55,8.16,8.15Zm259.83-9-11-10.24c2.61-2.8,5.16-5.72,7.58-8.7l11.64,9.48C390,369.29,387.24,372.47,384.4,375.52Zm-277-9.36c-2.64-3.23-5.19-6.59-7.6-10l12.24-8.67c2.21,3.12,4.56,6.21,7,9.18Zm292.82-10.1L388,347.4c2.21-3.13,4.34-6.37,6.34-9.65l12.81,7.81C405,349.13,402.65,352.66,400.25,356.06ZM92.93,345.69c-2.17-3.56-4.24-7.23-6.16-10.92l13.3-6.92c1.77,3.38,3.67,6.76,5.67,10Zm320.39-11.08L400,327.7c1.77-3.4,3.44-6.91,5-10.42l13.75,6C417.06,327.09,415.24,330.91,413.32,334.61Zm-332-11.16c-1.66-3.81-3.22-7.73-4.61-11.66l14.12-5c1.29,3.6,2.71,7.2,4.24,10.71Zm342-11.88-14.13-5c1.28-3.6,2.45-7.29,3.48-11l14.45,4C426,303.62,424.73,307.65,423.33,311.57ZM72.94,299.83c-1.13-4-2.13-8.12-3-12.2l14.68-3.05c.78,3.74,1.7,7.5,2.74,11.19ZM430.09,287.4l-14.69-3c.78-3.75,1.43-7.57,1.94-11.36l14.87,2C431.65,279.15,430.93,283.31,430.09,287.4ZM67.82,275.26c-.56-4.12-1-8.32-1.28-12.48l15-1c.27,3.83.67,7.68,1.18,11.47Zm365.66-12.72-15-1c.26-3.81.39-7.69.39-11.53v-.45h15v.4C433.9,254.18,433.76,258.4,433.48,262.54ZM81.1,250.23h-15V250c0-4,.14-8.19.41-12.25l15,1c-.25,3.73-.38,7.54-.38,11.31ZM418.48,238c-.27-3.83-.67-7.69-1.19-11.47l14.85-2.06c.58,4.12,1,8.32,1.3,12.48ZM82.63,227.21l-14.87-2c.56-4.14,1.27-8.3,2.1-12.38l14.7,3C83.79,219.59,83.14,223.42,82.63,227.21Zm332.68-12c-.78-3.75-1.71-7.51-2.75-11.19L427,200c1.13,4,2.14,8.11,3,12.19Zm-328-10.56-14.45-4c1.12-4,2.39-8,3.78-12l14.14,5C89.45,197.26,88.29,201,87.26,204.65Zm321.8-11.6c-1.29-3.6-2.72-7.2-4.26-10.7l13.75-6c1.66,3.81,3.22,7.74,4.63,11.66ZM95,182.91l-13.76-6c1.65-3.82,3.47-7.64,5.39-11.35l13.32,6.89C98.14,175.9,96.47,179.4,95,182.91ZM399.83,172c-1.77-3.38-3.68-6.76-5.68-10l12.79-7.83c2.18,3.55,4.26,7.22,6.19,10.91Zm-294.28-9.53-12.82-7.79c2.17-3.57,4.48-7.1,6.89-10.51l12.25,8.65C109.67,155.91,107.54,159.15,105.55,162.43ZM387.8,152.32c-2.21-3.11-4.56-6.2-7-9.17l11.61-9.49c2.65,3.23,5.21,6.59,7.61,10Zm-269-8.74-11.64-9.46c2.62-3.23,5.4-6.42,8.24-9.47l11,10.23C123.8,137.68,121.25,140.61,118.84,143.58Zm254.38-9.1c-2.63-2.8-5.38-5.54-8.18-8.14l10.22-11c3.05,2.83,6,5.81,8.89,8.86Zm-238.66-7.77L124.3,115.77c3-2.85,6.22-5.63,9.45-8.27l9.49,11.62C140.27,121.54,137.35,124.1,134.56,126.71Zm221.78-7.94c-3-2.41-6.08-4.76-9.21-7l8.64-12.26c3.4,2.39,6.77,4.94,10,7.57Zm-203.93-6.63L143.73,99.9c3.4-2.41,6.93-4.74,10.48-6.9L162,105.79C158.77,107.79,155.53,109.92,152.41,112.14Zm185.07-6.65c-3.27-2-6.66-3.88-10.06-5.64l6.88-13.33c3.71,1.92,7.4,4,11,6.15Zm-165.42-5.37-6.93-13.3c3.69-1.92,7.49-3.74,11.31-5.41l6,13.74C178.94,96.68,175.45,98.36,172.06,100.12ZM317,94.91c-3.52-1.52-7.13-2.94-10.75-4.22l5-14.14c3.94,1.39,7.87,2.93,11.7,4.59Zm-123.85-4-5-14.13c3.92-1.4,7.94-2.68,12-3.81l4.07,14.44C200.44,88.44,196.74,89.62,193.14,90.91Zm102.11-3.68c-3.68-1-7.45-1.93-11.2-2.7l3-14.69c4.09.84,8.2,1.82,12.21,2.94Zm-79.93-2.56L212.26,70c4.07-.85,8.23-1.57,12.37-2.14l2.05,14.86C222.88,83.22,219.06,83.89,215.32,84.67Zm57.36-2.06c-3.79-.51-7.65-.89-11.47-1.14l1-15c4.16.27,8.36.69,12.48,1.25Zm-34.53-1.1-1-15c4.14-.29,8.36-.44,12.54-.45l0,15C245.84,81.11,242,81.25,238.15,81.51Z"/>
      <circle class="cls-4" cx="382.95" cy="133.6" r="29.66"/>
      <circle class="cls-4" cx="250" cy="73.6" r="29.66"/>
      <circle class="cls-4" cx="73.86" cy="240.5" r="29.66"/>
      <circle class="cls-4" cx="164.48" cy="293.6" r="29.66"/>
      <circle class="cls-4" cx="164.48" cy="403.26" r="29.66"/>
      <path class="cls-3" d="M205.72,275.89l-9.67-11.47c62-52.32,41.86-146.17,41.65-147.11L252.34,114a210.27,210.27,0,0,1,2.91,58.58C251.47,216,234.34,251.74,205.72,275.89Z"/>
      <path class="cls-3" d="M196.94,374.33l-11.42-9.73c5-5.85,6.44-13.81,4.32-23.64a55.51,55.51,0,0,0-5.11-14l13-7.48a70,70,0,0,1,6.78,18.28C207.61,352.24,205,364.87,196.94,374.33Z"/>
      <rect class="cls-3" x="108.21" y="254.93" width="15" height="20.11" transform="translate(-171.04 227.87) rotate(-59.04)"/>
      <path class="cls-3" d="M125.14,384.77c-1-1.44-24.64-35.85-.2-74.31l12.66,8c-18.95,29.84-.95,56.54-.18,57.66Z"/>
    </g>
    <g>
      <circle class="cls-5" cx="375.37" cy="373.6" r="29.66"/>
      <path class="cls-1" d="M375.37,407.26A33.66,33.66,0,1,1,409,373.6,33.7,33.7,0,0,1,375.37,407.26Zm0-59.31A25.66,25.66,0,1,0,401,373.6,25.69,25.69,0,0,0,375.37,348Z"/>
    </g>
  </g>
  <g id="box1" class="parts" opacity='1'>
    <rect class="cls-6" x="117.97" y="70.34" width="23.54" height="359.31"/>
    <rect class="cls-6" x="238.23" y="190.74" width="23.54" height="359.31" transform="translate(620.39 120.39) rotate(90)"/>
    <path class="cls-2" d="M437.15,437.16H62.84V62.84H437.15Zm-359.31-15H422.15V77.84H77.84Z"/>
  </g>
  <g id="box2" class="parts" opacity='1'>
    <rect class="cls-6" x="117.97" y="70.34" width="23.54" height="359.31"/>
    <rect class="cls-6" x="238.23" y="190.74" width="23.54" height="359.31" transform="translate(620.39 120.39) rotate(90)"/>
    <rect class="cls-7" x="70.34" y="70.34" width="359.31" height="359.31"/>
  </g>
  <g id="box3" class="parts" opacity='1'>
    <rect class="cls-6" x="117.97" y="70.34" width="23.54" height="359.31"/>
    <rect class="cls-6" x="238.23" y="190.74" width="23.54" height="359.31" transform="translate(620.39 120.39) rotate(90)"/>
    <rect class="cls-8" x="70.34" y="70.34" width="359.31" height="359.31"/>
  </g>
</svg>
