<svg
   xmlns:svg="http://www.w3.org/2000/svg"
   xmlns="http://www.w3.org/2000/svg"
   version="1.1"
   width="440.59375"
   height="370.42957"
   id="svg4571">
  <defs
     id="defs4573" />
  <g
     transform="translate(-196.84598,-387.14739)"
     id="layer1">
    <path
       d="m 285.31506,565.8916 169.06584,0 0,-168.16643 -169.06584,0 0,168.16643 z"
       id="path350"
       style="fill:#d4effc;fill-opacity:1;fill-rule:nonzero;stroke:none" />
    <path
       d="m 285.34801,388.14739 c -4.64872,0 -8.39803,3.3267 -9.21074,7.85622 l -78.29129,0 79.91671,80.18761 c -1.1703,1.61459 -1.89633,3.79266 -1.89633,5.95989 0,5.3639 4.24778,9.75255 9.48165,9.75255 2.17807,0 4.09607,-0.91024 5.68898,-2.16723 l 33.86302,34.13391 -34.13392,34.13392 c -1.5279,-1.09445 -3.41339,-1.89633 -5.41808,-1.89633 -5.24471,0 -9.48165,4.38865 -9.48165,9.75255 0,1.93967 0.3901,3.91186 1.35452,5.41808 l -79.104,78.56219 5.14718,0 76.39496,-76.12405 c 1.56041,1.17031 3.58677,1.89633 5.68899,1.89633 5.23386,0 9.48164,-4.38865 9.48164,-9.75255 0,-2.0372 -0.57388,-3.85767 -1.62542,-5.41808 l 34.13391,-34.13392 34.13392,34.13392 c -1.05111,1.57124 -1.62542,3.38088 -1.62542,5.41808 0,5.3639 4.23694,9.75255 9.48164,9.75255 2.04804,0 3.86851,-0.48806 5.41808,-1.62543 l 81.27123,81.54214 0,-79.91671 c 4.432,-0.82355 7.85622,-4.98464 7.85622,-9.75255 0,-4.76791 -3.42422,-8.64726 -7.85622,-9.48164 l 0,-64.74608 c 4.4645,-0.80188 7.85622,-4.68123 7.85622,-9.48165 0,-4.78958 -3.39172,-8.95067 -7.85622,-9.75255 l 0,-65.01698 c 4.44283,-0.81228 7.85622,-4.7029 7.85622,-9.48165 0,-5.37473 -4.24777,-9.75254 -9.48164,-9.75254 -4.64871,0 -8.39803,3.3267 -9.21074,7.85622 l -66.64241,0 c -0.80188,-4.54036 -4.55119,-7.85622 -9.21074,-7.85622 -4.65955,0 -8.6906,3.31586 -9.48164,7.85622 l -65.28789,0 c -0.81228,-4.52952 -4.55119,-7.85622 -9.21074,-7.85622 z m -79.104,11.37797 69.89326,0 c 0.7906,4.54035 4.54035,7.85622 9.21074,7.85622 4.67038,0 8.4197,-3.31587 9.21074,-7.85622 l 65.28789,0 c 0.80187,4.52952 4.83293,7.85622 9.48164,7.85622 4.65955,0 8.39803,-3.3267 9.21074,-7.85622 l 66.64241,0 c 0.22799,1.32201 0.66057,2.43814 1.35452,3.52175 l -71.51868,71.24778 c -1.58208,-1.22448 -3.54343,-1.89633 -5.68899,-1.89633 -5.23387,0 -9.48164,4.11775 -9.48164,9.48165 0,2.09138 0.5418,4.1069 1.62542,5.68898 l -34.13392,33.86302 -33.86301,-34.13392 c 0.88857,-1.48455 1.35452,-3.28336 1.35452,-5.14718 0,-5.3639 -4.23694,-9.75255 -9.48164,-9.75255 -1.8855,0 -3.67346,0.66058 -5.14718,1.62543 l -73.95682,-74.49863 z m 242.73008,6.23079 c 1.09445,0.81228 2.14556,1.35452 3.52175,1.62543 l 0,65.01698 c -4.36697,0.87773 -7.58531,5.03882 -7.58531,9.75255 0,4.72457 3.21834,8.61475 7.58531,9.48165 l 0,64.74608 c -4.38865,0.84522 -7.58531,4.7354 -7.58531,9.48164 0,4.74624 3.19666,8.91816 7.58531,9.75255 l 0,71.51868 -75.31134,-75.85315 c 1.00776,-1.5279 1.62542,-3.43506 1.62542,-5.41808 0,-5.3639 -4.23694,-9.48164 -9.48164,-9.48164 -2.01553,0 -3.89018,0.5314 -5.41808,1.62542 l -34.13392,-34.13392 34.13392,-33.86301 c 1.50622,1.05111 3.45673,1.62543 5.41808,1.62543 5.2447,0 9.48164,-4.37781 9.48164,-9.75255 0,-1.90717 -0.69351,-3.65179 -1.62542,-5.14718 l 71.78959,-70.97688 z m 163.62608,190.17469 c -4.4645,0 -8.49555,0.82355 -11.64888,2.16723 -3.16416,1.35452 -5.3639,3.38088 -7.0435,5.95989 -1.67961,2.57901 -2.70905,5.16885 -2.70905,8.12712 0,4.60537 1.84215,8.45221 5.41809,11.64888 2.53566,2.27559 6.97849,4.39948 13.2743,5.95989 4.88711,1.21365 8.10545,1.96135 9.48164,2.43814 2.00469,0.71518 3.25085,1.47372 4.06356,2.43813 0.80188,0.96442 1.35452,2.14557 1.35452,3.52176 0,2.13472 -1.06194,4.09607 -2.97994,5.68898 -1.918,1.60376 -4.61621,2.43814 -8.39803,2.43814 -3.5651,0 -6.56671,-0.91024 -8.66893,-2.70904 -2.10222,-1.7988 -3.38088,-4.56202 -4.06356,-8.39803 l -11.37797,1.08362 c 0.75853,6.5017 3.10997,11.50801 7.0435,14.89973 3.93353,3.40255 9.44914,4.87627 16.79606,4.87627 5.04965,0 9.34077,-0.48806 12.73249,-1.89633 3.38088,-1.41954 6.00323,-3.58677 7.85622,-6.5017 1.85298,-2.90409 2.70904,-6.15494 2.70904,-9.48164 0,-3.67346 -0.88857,-6.71842 -2.43814,-9.21074 -1.53873,-2.50316 -3.50008,-4.51868 -6.23079,-5.95989 -2.74155,-1.44121 -7.02184,-2.70904 -12.73249,-4.06356 -5.69983,-1.34369 -9.35161,-2.82824 -10.83617,-4.06357 -1.15947,-0.98609 -1.62542,-2.14556 -1.62542,-3.52175 0,-1.50623 0.66057,-2.62235 1.89633,-3.52175 1.92883,-1.39787 4.45366,-2.16723 7.85621,-2.16723 3.30503,0 5.93822,0.59555 7.58532,1.89632 1.65793,1.31118 2.74155,3.51092 3.25085,6.5017 l 11.64888,-0.54181 c -0.18465,-5.33139 -2.2756,-9.52498 -5.9599,-12.73249 -3.69513,-3.19667 -8.9615,-4.87627 -16.25424,-4.87627 z m -128.40855,1.08361 0,58.24439 11.64888,0 0,-17.60877 9.48164,-9.75255 15.98334,27.36132 15.17063,0 -23.02684,-35.48844 21.94323,-22.75595 -15.98334,0 -23.56866,25.73589 0,-25.73589 -11.64888,0 z m 54.18082,0 0,9.75255 17.33787,0 0,48.49184 11.64887,0 0,-48.49184 17.33787,0 0,-9.75255 -46.32461,0 z m -55.26443,100.23452 c -1.98302,0 -3.4134,0.75854 -4.60537,1.89633 -1.20282,1.14864 -1.89633,2.61152 -1.89633,4.33447 0,1.30034 0.60682,2.43813 1.62542,3.52175 0.54181,0.56348 1.24616,1.07278 2.16723,1.62543 l 2.97995,1.89632 c 1.75546,1.04028 2.96911,1.6471 3.52175,2.16724 0.83482,0.82355 1.08362,1.86382 1.08362,2.97994 0,1.22449 -0.2488,2.28643 -1.08362,2.97995 -0.82355,0.68311 -1.83131,0.81228 -2.97994,0.81228 -2.10222,0 -3.99855,-0.57475 -5.41808,-2.16724 -0.81228,-0.91023 -1.30034,-2.26475 -1.89633,-3.79265 l -1.08362,0 1.08362,7.31441 0.81228,0 c 0.0433,-0.28174 0.13003,-0.57475 0.27047,-0.81228 0.1517,-0.24967 0.66057,-0.27047 1.08361,-0.27047 0.17338,0 0.68311,0.1413 1.89633,0.54181 1.20282,0.4005 2.41647,0.5418 3.52175,0.5418 2.21058,0 4.00939,-0.43344 5.41809,-1.62542 1.41953,-1.20281 2.16723,-2.8174 2.16723,-4.60537 0,-1.33285 -0.55308,-2.5465 -1.35452,-3.52175 -0.80188,-0.96442 -2.10222,-2.09138 -4.06356,-3.25085 l -3.24998,-1.62586 c -1.18115,-0.69352 -1.87466,-1.53874 -2.43814,-2.16723 -0.55308,-0.6285 -0.81228,-1.28951 -0.81228,-2.16724 0,-0.97525 0.35716,-1.61459 1.08362,-2.16723 0.72645,-0.55308 1.46288,-0.81228 2.43813,-0.81228 1.26783,0 2.50316,0.21672 3.79266,1.08362 1.2895,0.86689 2.39479,2.41646 2.97995,4.60537 l 0.81227,0 -0.81227,-7.31441 -0.81228,0 c -0.098,0.36843 -0.098,0.87773 -0.27047,1.08361 -0.16211,0.19505 -0.65017,0.27047 -1.08362,0.27047 -0.16211,0 -0.74726,-0.1517 -1.89633,-0.5418 -1.14863,-0.37884 -2.1564,-0.81228 -2.97994,-0.81228 z m -284.99113,0.54181 0,0.81228 c 1.3762,0.0867 2.31894,0.18465 2.70905,0.54181 0.3901,0.35716 0.5418,1.20281 0.5418,2.43814 l 0,14.62882 c 0,1.45204 -0.19505,2.58984 -0.5418,2.97994 -0.35716,0.37884 -1.257,0.43345 -2.70905,0.54181 l 0,0.54181 10.29436,0 0,-0.54181 c -1.34368,-0.10836 -2.29727,-0.20632 -2.70904,-0.54181 -0.40051,-0.34675 -0.54181,-1.1703 -0.54181,-2.43813 l 0,-6.2308 1.08362,-0.81228 6.7726,7.04351 c 0.48719,0.52014 0.84522,0.96442 1.08362,1.35452 0.21672,0.3901 0.5418,0.6285 0.5418,0.81228 0,0.34676 -0.19505,0.42218 -0.5418,0.54181 -0.35716,0.11963 -1.18115,0.23839 -2.16724,0.27047 l 0,0.54181 11.10707,0 0,-0.54181 c -1.08361,-0.11963 -1.87465,-0.42218 -2.43813,-0.81228 -0.56349,-0.3901 -1.69045,-1.1378 -3.25085,-2.70904 l -8.66894,-8.93984 7.04351,-6.23079 c 1.17031,-1.05111 2.04804,-1.58208 2.70904,-1.89633 0.66057,-0.31382 1.56041,-0.43345 2.70904,-0.54181 l 0,-0.81228 -9.21074,0 0,0.81228 c 0.78021,0 1.20282,-0.15171 1.62543,0 0.43344,0.1413 0.81228,0.63977 0.81228,1.08362 0,0.65017 -1.28951,2.05887 -3.79266,4.33446 -1.39787,1.257 -3.21834,2.81741 -5.41808,4.60537 l 0,-7.0435 c 0,-1.21365 0.1413,-2.05888 0.54181,-2.43814 0.41177,-0.37883 1.31117,-0.47679 2.70904,-0.54181 l 0,-0.81228 -10.29436,0 z m 122.44866,0 -0.27047,5.95989 1.08362,0 c 0.35716,-1.83131 0.91023,-3.25085 1.62542,-3.79266 0.71519,-0.5418 1.82048,-0.81227 3.79266,-0.81227 l 2.16723,0 0,17.06695 c 0,1.47372 -0.16211,2.62236 -0.54181,2.97995 -0.36843,0.36843 -1.46288,0.43345 -2.97994,0.54181 l 0,0.54181 10.56526,0 0,-0.54181 c -1.45205,-0.098 -2.5465,-0.22799 -2.97995,-0.54181 -0.43344,-0.31382 -0.54181,-1.12696 -0.54181,-2.43814 l 0,-17.60876 1.89633,0 c 2.08055,0 3.4134,0.26006 4.06357,0.81227 0.65017,0.54181 1.20281,1.97219 1.62542,3.79266 l 1.08362,0 -0.27047,-5.95989 -20.31781,0 z m -65.01699,1.89633 -6.50169,15.17063 c -0.99693,2.26476 -1.75546,3.55426 -2.16724,4.06356 -0.41177,0.49847 -1.07278,0.72646 -1.89633,0.81228 l 0,0.54181 6.5017,0 0,-0.54181 c -0.75853,-0.0607 -1.35452,-0.15171 -1.62542,-0.27047 -0.44385,-0.19505 -0.81228,-0.56348 -0.81228,-1.08362 0,-0.26006 0.10836,-0.36843 0.27047,-0.81227 0.16211,-0.44385 0.79061,-1.78797 1.62543,-3.79266 l 8.39802,0 1.35452,2.97994 c 0.18465,0.42218 0.43345,0.70479 0.54181,1.08362 0.098,0.37883 0,0.66144 0,0.81228 0,0.45512 0,0.70478 -0.27047,0.81228 -0.27047,0.11963 -0.95358,0.18465 -1.89633,0.27047 l 0,0.54181 8.12712,0 0,-0.54181 c -0.75853,-0.098 -1.31117,-0.27047 -1.62542,-0.54181 -0.32508,-0.27047 -0.81228,-1.0186 -1.35452,-2.16723 l -7.85622,-17.33787 -0.81228,0 z m 44.97009,0 c -1.78797,0 -3.26169,0.59642 -4.33447,1.62543 -1.08362,1.02943 -1.62542,2.24308 -1.62542,3.79265 0,1.17031 0.44385,2.28643 1.35452,3.25085 0.49846,0.50887 1.07278,0.84522 1.89633,1.35452 l 2.70904,1.62543 c 1.58208,0.94274 2.75238,1.70127 3.25085,2.16723 0.74726,0.74813 1.08361,1.71211 1.08361,2.70904 0,1.10529 -0.32508,1.82048 -1.08361,2.43814 -0.74727,0.61809 -1.69045,1.08361 -2.70905,1.08361 -1.89632,0 -3.3267,-0.73685 -4.60536,-2.16723 -0.72646,-0.81228 -1.61459,-1.87465 -2.16724,-3.25085 l -0.54181,0 0.81228,6.5017 0.81228,0 c 0.0434,-0.24966 0.14131,-0.59642 0.27047,-0.81228 0.13004,-0.21672 0.44385,-0.27047 0.81228,-0.27047 0.16211,0 0.80188,0.18465 1.89633,0.54181 1.08362,0.36843 1.98302,0.54181 2.97995,0.54181 1.98301,0 3.5976,-0.55308 4.87627,-1.62543 1.26783,-1.08361 1.89633,-2.45981 1.89633,-4.06356 0,-1.20281 -0.36843,-2.10221 -1.08362,-2.97994 -0.72645,-0.8669 -2.01553,-1.93968 -3.79266,-2.97995 l -2.70904,-1.62542 c -1.05977,-0.6181 -1.93967,-1.33285 -2.43813,-1.89633 -0.49847,-0.56348 -0.81228,-1.10529 -0.81228,-1.89633 0,-0.87773 0.43344,-1.67961 1.08361,-2.16723 0.66058,-0.49847 1.56041,-0.81228 2.43814,-0.81228 1.12696,0 2.09138,0.57475 3.25085,1.35452 1.15947,0.7802 2.1889,2.09138 2.70904,4.06356 l 0.54181,0 -0.54181,-6.5017 -0.81228,0 c -0.0867,0.32509 -0.11876,0.63977 -0.27047,0.81228 -0.1517,0.18465 -0.41177,0.27047 -0.81228,0.27047 -0.1413,0 -0.59642,-0.19505 -1.62542,-0.54181 -1.04027,-0.33549 -1.97218,-0.54181 -2.70904,-0.54181 z m 50.11726,0 c -1.78797,0 -3.25085,0.59642 -4.33447,1.62543 -1.07278,1.02943 -1.62542,2.24308 -1.62542,3.79265 0,1.17031 0.44385,2.28643 1.35452,3.25085 0.49846,0.50887 1.07278,0.84522 1.89633,1.35452 l 2.97994,1.62543 c 1.57124,0.94274 2.48148,1.70127 2.97995,2.16723 0.74726,0.74813 1.08361,1.71211 1.08361,2.70904 0,1.10529 -0.33635,1.82048 -1.08361,2.43814 -0.74727,0.61809 -1.67961,1.08361 -2.70905,1.08361 -1.89632,0 -3.3267,-0.73685 -4.60536,-2.16723 -0.73686,-0.81228 -1.35453,-1.87465 -1.89633,-3.25085 l -0.81228,0 0.81228,6.5017 0.81228,0 c 0.0433,-0.24966 0.1413,-0.59642 0.27047,-0.81228 0.13003,-0.21672 0.43344,-0.27047 0.81227,-0.27047 0.16211,0 0.81228,0.18465 1.89633,0.54181 1.09446,0.36843 1.98302,0.54181 2.97995,0.54181 1.98302,0 3.59761,-0.55308 4.87627,-1.62543 1.26783,-1.08361 1.89633,-2.45981 1.89633,-4.06356 0,-1.20281 -0.36843,-2.10221 -1.08362,-2.97994 -0.72645,-0.8669 -2.02636,-1.93968 -3.79265,-2.97995 l -2.70904,-1.62542 c -1.05952,-0.61897 -1.93838,-1.33372 -2.43684,-1.8972 -0.50973,-0.56348 -0.54181,-1.10529 -0.54181,-1.89633 0,-0.87773 0.15171,-1.6796 0.81228,-2.16723 0.65017,-0.49846 1.54957,-0.81228 2.43814,-0.81228 1.12696,0 2.09138,0.57475 3.25085,1.35452 1.15947,0.7802 2.1889,2.09138 2.70904,4.06356 l 0.81228,0 -0.81228,-6.5017 -0.54181,0 c -0.0867,0.32509 -0.3901,0.63977 -0.54181,0.81228 -0.15171,0.18465 -0.41177,0.27047 -0.81228,0.27047 -0.1517,0 -0.59642,-0.19505 -1.62542,-0.5418 -1.04027,-0.33549 -1.97218,-0.54181 -2.70904,-0.54181 z m 22.21413,0 c -3.34837,0 -6.04658,1.11613 -8.12712,3.25085 -1.98302,2.02636 -2.97994,4.59453 -2.97994,7.58531 0,2.92577 1.10528,5.36391 2.97994,7.31442 2.0372,2.10221 4.67039,2.97994 8.12712,2.97994 2.11306,0 4.15025,-0.52013 5.95989,-1.62542 1.06195,-0.63977 1.99386,-1.31118 2.70904,-2.16724 l -0.5418,-0.5418 c -0.96442,0.86689 -1.90717,1.46288 -2.70904,1.89632 -1.40871,0.75854 -2.9366,1.08362 -4.60537,1.08362 -2.30811,0 -4.18276,-0.80188 -5.68899,-2.43814 -1.50623,-1.63626 -2.43814,-3.77098 -2.43814,-6.5017 0,-2.97994 0.73686,-5.35306 2.16724,-7.0435 1.43037,-1.70128 3.42422,-2.43814 5.68898,-2.43814 2.23225,0 3.82517,0.58515 5.14718,2.16723 0.69351,0.83396 1.19198,2.14556 1.62542,3.52176 l 0.81228,0 -0.27047,-7.04351 -0.54181,0 c -0.098,0.34676 -0.27047,0.66144 -0.5418,0.81228 -0.27047,0.16298 -0.78021,0.27047 -1.08362,0.27047 -0.1413,0 -0.67184,-0.21672 -1.89633,-0.54181 -1.22449,-0.32508 -2.63319,-0.54181 -3.79266,-0.54181 z m 78.8331,0 -6.5017,15.17063 c -1.00776,2.26476 -1.75546,3.55426 -2.16723,4.06356 -0.41178,0.49847 -1.07278,0.72646 -1.89633,0.81228 l 0,0.54181 6.5017,0 0,-0.54181 c -0.74726,-0.0607 -1.35452,-0.15171 -1.62543,-0.27047 -0.44385,-0.19505 -0.81228,-0.56348 -0.81228,-1.08362 0,-0.26006 0.10837,-0.36843 0.27047,-0.81227 0.16211,-0.44385 0.79061,-1.78797 1.62543,-3.79266 l 8.39803,0 1.35452,2.97994 c 0.18464,0.42218 0.43344,0.70479 0.5418,1.08362 0.098,0.37883 0,0.66144 0,0.81228 0,0.45512 0.009,0.70478 -0.27047,0.81228 -0.27047,0.11963 -0.95358,0.18465 -1.89632,0.27047 l 0,0.54181 8.12712,0 0,-0.54181 c -0.75853,-0.098 -1.31118,-0.27047 -1.62543,-0.54181 -0.32508,-0.27047 -0.81227,-1.0186 -1.35452,-2.16723 l -7.85622,-17.33787 -0.81227,0 z m 173.37863,0 c -3.4459,0 -6.03575,1.26783 -8.12713,3.52175 -1.89632,2.0372 -2.97994,4.4645 -2.97994,7.31441 0,3.25085 1.14863,5.65648 3.52175,7.58532 2.16724,1.74462 4.98464,2.70904 8.12713,2.70904 1.71211,0 3.56509,-0.21672 5.41808,-0.81228 1.85298,-0.60682 2.70904,-1.26783 2.70904,-1.62542 l 0,-5.95989 c 0,-1.00777 0.098,-1.57125 0.54181,-1.89633 0.26007,-0.19505 0.83482,-0.4872 1.62542,-0.54181 l 0,-0.54181 -8.12712,0 0,0.54181 c 1.19198,0.078 1.80964,0.26007 2.16723,0.54181 0.34676,0.29214 0.54181,1.25699 0.54181,2.43814 l 0,4.87627 c 0,0.33549 -0.078,0.63977 -0.27047,0.81228 -0.18465,0.17338 -0.58515,0.30341 -1.35452,0.54181 -0.46639,0.1413 -1.09445,0.19505 -1.62543,0.27047 -0.52013,0.0607 -0.96441,0 -1.35452,0 -2.29726,0 -4.12858,-0.58516 -5.68898,-2.16724 -1.57168,-1.59291 -2.43814,-3.94436 -2.43814,-6.7726 0,-3.42423 0.87773,-5.81902 2.43814,-7.31441 1.57124,-1.49539 3.35921,-2.16723 5.41808,-2.16723 2.0372,0 3.60844,0.61809 4.87627,1.89633 0.70392,0.73686 1.50623,1.76629 2.16724,3.25085 l 0.81227,0 -0.27047,-6.5017 -0.81227,0 c -0.13004,0.32508 -0.34676,0.63976 -0.54181,0.81228 -0.19505,0.17337 -0.34676,0.27047 -0.81228,0.27047 -0.18465,0 -0.96442,-0.21673 -2.16723,-0.54181 -1.20282,-0.32509 -2.53567,-0.54181 -3.79266,-0.54181 z m -400.66718,0.54181 0,0.54181 c 1.19198,0.078 2.08055,0.21672 2.43814,0.54181 0.33635,0.33548 0.54181,1.07278 0.54181,2.16723 l 0,13.5452 c 0,1.15947 -0.19505,1.8855 -0.54181,2.16724 -0.35716,0.28174 -1.257,0.42217 -2.43814,0.5418 l 0,0.54181 17.33787,0 1.62542,-5.14718 -0.81228,0 c -0.94275,1.84215 -1.97218,3.06664 -2.97994,3.52176 -1.00777,0.44385 -2.81741,0.54181 -5.68899,0.54181 -0.73686,0 -1.35452,0.0173 -1.62542,0 -0.27048,0 -0.30342,0.0347 -0.54181,0 -0.41178,-0.052 -0.69352,-0.34676 -0.81228,-0.54181 -0.11877,-0.19505 -0.27047,-0.46552 -0.27047,-0.81228 l 0,-14.62882 c 0,-1.0186 0.1413,-1.58208 0.54181,-1.89633 0.41177,-0.30341 1.25699,-0.47679 2.43813,-0.54181 l 0,-0.54181 -9.21074,0 z m 44.42828,0 0,0.54181 c 1.21365,0.0867 2.0697,0.22799 2.43813,0.54181 0.35716,0.31381 0.54181,1.0511 0.54181,2.16723 l 0,9.48164 c 0,1.89633 0.40051,3.43507 1.08362,4.60537 1.25699,2.1564 3.5651,3.25085 7.0435,3.25085 3.53259,0 5.78652,-1.06194 7.04351,-3.25085 0.68311,-1.18114 1.08362,-2.76322 1.08362,-4.87627 l 0,-8.12713 c 0,-1.60375 0.16211,-2.53566 0.54181,-2.97994 0.3797,-0.44385 1.19197,-0.68311 2.43813,-0.81228 l 0,-0.54181 -7.31441,0 0,0.54181 c 1.17031,0.10836 2.02636,0.37883 2.43814,0.81228 0.42304,0.42218 0.54181,1.31118 0.54181,2.97994 l 0,8.12713 c 0,1.95051 -0.31382,3.39172 -0.81228,4.33446 -0.91024,1.67961 -2.51399,2.43814 -5.14718,2.43814 -2.39479,0 -4.02022,-0.80188 -4.87627,-2.43814 -0.46639,-0.8994 -0.81315,-2.17807 -0.81315,-3.79265 l 0,-9.75255 c 0,-1.12696 0.17338,-1.85299 0.54181,-2.16723 0.35716,-0.31382 1.20281,-0.46553 2.43814,-0.54181 l 0,-0.54181 -9.21074,0 z m 114.86334,0 0,0.54181 c 1.19198,0.078 2.09138,0.20632 2.43813,0.54181 0.34676,0.32508 0.54181,1.06194 0.54181,2.16723 l 0,13.2743 c 0,1.32201 -0.22799,2.12389 -0.54181,2.43814 -0.31381,0.31381 -1.18114,0.41177 -2.43813,0.5418 l 0,0.54181 8.93983,0 0,-0.54181 c -1.18114,-0.0867 -1.80964,-0.22799 -2.16723,-0.5418 -0.35716,-0.32509 -0.54181,-1.05111 -0.54181,-2.16724 l 0,-6.23079 9.75255,0 0,5.95989 c 0,1.32201 -0.22799,2.12389 -0.54181,2.43814 -0.30341,0.32508 -1.1703,0.42217 -2.43814,0.5418 l 0,0.54181 8.93984,0 0,-0.54181 c -1.19198,-0.0979 -1.82048,-0.22799 -2.16723,-0.5418 -0.35716,-0.31382 -0.54181,-1.05111 -0.54181,-2.16724 l 0,-13.5452 c 0,-1.10529 0.18465,-1.84215 0.54181,-2.16723 0.34675,-0.33549 0.97525,-0.46553 2.16723,-0.54181 l 0,-0.54181 -8.93984,0 0,0.54181 c 1.19198,0.078 2.09138,0.20632 2.43814,0.54181 0.34676,0.32508 0.54181,1.06194 0.54181,2.16723 l 0,5.95989 -9.75255,0 0,-5.95989 c 0,-1.10529 0.18465,-1.84215 0.54181,-2.16723 0.35716,-0.33549 0.98609,-0.46553 2.16723,-0.54181 l 0,-0.54181 -8.93983,0 z m 23.83956,0 0,0.54181 c 1.31118,0.0607 2.31894,0.21672 2.70904,0.54181 0.3901,0.32508 0.54181,1.02943 0.54181,2.16723 l 0,13.5452 c 0,1.19198 -0.15171,1.8855 -0.54181,2.16724 -0.3901,0.28174 -1.39786,0.45512 -2.70904,0.5418 l 0,0.54181 9.75255,0 0,-0.54181 c -1.31118,-0.0867 -2.31894,-0.26006 -2.70904,-0.5418 -0.3797,-0.28174 -0.54181,-0.97526 -0.54181,-2.16724 l 0,-13.5452 c 0,-1.1378 0.16211,-1.84215 0.54181,-2.16723 0.3901,-0.32509 1.39786,-0.4768 2.70904,-0.54181 l 0,-0.54181 -9.75255,0 z m 11.37797,0 0,0.54181 c 1.17031,0.0867 1.83131,0.20632 2.16723,0.54181 0.34676,0.33548 0.54181,1.08361 0.54181,2.16723 l 0,13.2743 c 0,1.27867 -0.23839,2.09138 -0.54181,2.43814 -0.31381,0.34675 -0.93191,0.43344 -2.16723,0.5418 l 0,0.81228 8.93984,0 0,-0.81228 c -1.21365,-0.0979 -2.08055,-0.23839 -2.43814,-0.5418 -0.36843,-0.30342 -0.54181,-1.02944 -0.54181,-2.16724 l 0,-5.95989 1.35452,0 8.12713,9.48165 5.14717,0 0,-0.81228 c -0.63976,-0.052 -1.21365,-0.052 -1.62542,-0.27047 -0.41178,-0.228 -0.67184,-0.60683 -1.08362,-1.08362 l -6.7726,-7.85709 c 1.78797,-0.26006 3.28336,-0.80187 4.33447,-1.62542 1.04027,-0.81228 1.62542,-1.99385 1.62542,-3.52175 0,-2.2756 -1.17031,-3.76015 -3.52175,-4.60537 -1.23533,-0.45512 -2.75239,-0.54181 -4.60537,-0.54181 l -8.93984,0 z m 76.39496,0 0,5.14718 0.81228,0 c 0.32508,-1.6471 0.71519,-2.75239 1.35452,-3.25085 0.65017,-0.4872 1.74462,-0.81228 3.52175,-0.81228 l 1.89633,0 0,15.44153 c 0,1.32201 -0.20545,2.11305 -0.54181,2.43814 -0.33635,0.33549 -1.07278,0.43345 -2.43813,0.54181 l 0,0.54181 9.48164,0 0,-0.54181 c -1.31118,-0.098 -2.31894,-0.26007 -2.70904,-0.54181 -0.3797,-0.28174 -0.54181,-0.98609 -0.54181,-2.16723 l 0,-15.71244 1.89633,0 c 1.87466,0 2.94744,0.31381 3.52175,0.81228 0.58516,0.49846 1.24616,1.61459 1.62543,3.25085 l 0.54181,0 0,-5.14718 -18.42148,0 z m 20.31781,0 0,0.54181 c 1.31117,0.0607 2.31894,0.21672 2.70904,0.54181 0.3901,0.32508 0.54181,1.02943 0.54181,2.16723 l 0,13.5452 c 0,1.19198 -0.15171,1.8855 -0.54181,2.16724 -0.3901,0.28174 -1.39787,0.45512 -2.70904,0.5418 l 0,0.54181 9.48164,0 0,-0.54181 c -1.31117,-0.0867 -2.05887,-0.26006 -2.43814,-0.5418 -0.3901,-0.28174 -0.5418,-0.97526 -0.5418,-2.16724 l 0,-13.5452 c 0,-1.1378 0.1517,-1.84215 0.5418,-2.16723 0.3797,-0.32509 1.12697,-0.4768 2.43814,-0.54181 l 0,-0.54181 -9.48164,0 z m 11.37797,0 0,0.54181 c 1.20281,0.078 1.82048,0.21672 2.16723,0.54181 0.34676,0.33548 0.54181,1.07278 0.54181,2.16723 l 0,13.2743 c 0,1.32201 -0.23839,2.12389 -0.54181,2.43814 -0.31381,0.31381 -0.8994,0.41177 -2.16723,0.5418 l 0,0.54181 8.93984,0 0,-0.54181 c -1.21365,-0.0867 -2.08055,-0.22799 -2.43814,-0.5418 -0.36843,-0.31382 -0.54181,-1.04028 -0.54181,-2.16724 l 0,-6.7726 4.60537,0 c 1.36536,0 2.32978,0.43345 2.70904,0.81228 0.3797,0.3901 0.57389,0.97525 0.81228,2.16723 l 0.81228,0 0,-7.0435 -0.81228,0 c -0.22799,1.18114 -0.44385,2.04803 -0.81228,2.43813 -0.3797,0.3901 -1.33285,0.54181 -2.70904,0.54181 l -4.60537,0 0,-6.7726 c 0,-0.41178 0.15171,-0.67184 0.27047,-0.81228 0.13004,-0.1413 0.3797,-0.27047 0.81228,-0.27047 l 4.33447,0 c 1.78796,0 2.91492,0.17338 3.52175,0.54181 0.60682,0.36843 1.1378,1.30034 1.35452,2.70904 l 0.81228,0 0,-4.33447 -17.06696,0 z m 18.69238,0 -0.27047,5.14718 0.81228,0 c 0.32509,-1.6471 0.97526,-2.75239 1.62543,-3.25085 0.65017,-0.4872 1.74462,-0.81228 3.52175,-0.81228 l 1.89633,0 0,15.44153 c 0,1.32201 -0.20545,2.11305 -0.54181,2.43814 -0.33635,0.33549 -1.34368,0.43345 -2.70904,0.54181 l 0,0.54181 9.48164,0 0,-0.54181 c -1.32201,-0.098 -2.04803,-0.26007 -2.43813,-0.54181 -0.39011,-0.28174 -0.54181,-0.98609 -0.54181,-2.16723 l 0,-15.71244 1.62542,0 c 1.86382,0 3.20751,0.31381 3.79266,0.81228 0.58515,0.49846 0.97526,1.61459 1.35452,3.25085 l 0.81228,0 -0.27047,-5.14718 -18.15058,0 z m 20.04691,0 0,0.54181 c 1.22448,0.0867 2.06971,0.22799 2.43813,0.54181 0.35716,0.31381 0.54181,1.0511 0.54181,2.16723 l 0,9.48164 c 0,1.89633 0.40051,3.43507 1.08362,4.60537 1.26783,2.1564 3.55426,3.25085 7.04351,3.25085 3.52175,0 6.05741,-1.06194 7.31441,-3.25085 0.68311,-1.18114 0.81228,-2.76322 0.81228,-4.87627 l 0,-8.12713 c 0,-1.60375 0.43344,-2.53566 0.81228,-2.97994 0.3901,-0.44385 1.19197,-0.68311 2.43813,-0.81228 l 0,-0.54181 -7.58531,0 0,0.54181 c 1.1703,0.10836 2.01552,0.37883 2.43813,0.81228 0.41178,0.42218 0.54181,1.31118 0.54181,2.97994 l 0,8.12713 c 0,1.95051 -0.30341,3.39172 -0.81228,4.33446 -0.8994,1.67961 -2.51399,2.43814 -5.14717,2.43814 -2.40563,0 -4.02022,-0.80188 -4.87628,-2.43814 -0.46639,-0.8994 -0.81228,-2.17807 -0.81228,-3.79265 l 0,-9.75255 c 0,-1.12696 0.17338,-1.85299 0.54181,-2.16723 0.36843,-0.31382 1.20281,-0.46553 2.43814,-0.54181 l 0,-0.54181 -9.21074,0 z m 23.83956,0 0,0.54181 c 0.66057,0.0173 1.2895,-0.11963 1.62542,0 0.32509,0.13003 0.60683,0.55307 1.08362,1.08361 l 0.54181,0.54181 0,13.54521 c 0,1.61459 -0.16211,2.53566 -0.54181,2.97994 -0.3797,0.44385 -1.37619,0.68311 -2.70904,0.81228 l 0,0.54181 7.58531,0 0,-0.54181 c -1.15947,-0.11963 -1.83131,-0.21672 -2.16723,-0.54181 -0.50973,-0.50886 -0.81228,-1.57124 -0.81228,-3.25085 l 0,-11.91978 14.35792,16.79606 0.54181,0 0,-16.25425 c 0,-1.61459 0.1413,-2.53566 0.54181,-2.97994 0.41177,-0.45512 1.21365,-0.69352 2.43813,-0.81228 l 0,-0.54181 -7.58531,0 0,0.54181 c 1.19198,0.098 2.10221,0.21672 2.43814,0.54181 0.53053,0.50886 0.81227,1.58208 0.81227,3.25084 l 0,10.29436 -12.46158,-14.62882 -5.68899,0 z m -162.81337,1.08362 c 1.35452,0 2.43814,0.18464 3.25085,0.5418 1.53874,0.63977 2.43814,1.74463 2.43814,3.52176 0,1.84214 -1.00777,3.12081 -2.70904,3.79265 -0.99693,0.37884 -2.55734,0.72646 -4.87628,0.81228 l 0,-7.58531 c 0,-0.45512 0.0693,-0.69352 0.27047,-0.81228 0.20546,-0.13003 0.70392,-0.27047 1.62543,-0.27047 z m -171.4823,2.70904 3.52175,8.39802 -7.31441,0 3.79266,-8.39802 z m 196.13457,0 3.52176,8.39802 -7.31441,0 3.79265,-8.39802 z m -76.93676,26.8195 c -0.46639,0 -1.02944,-0.0347 -1.35452,0.27047 -0.32509,0.29215 -0.27047,0.67185 -0.27047,1.08362 0,0.42218 -0.052,0.7802 0.27047,1.08362 0.32508,0.30341 0.88856,0.5418 1.35452,0.5418 0.46639,0 0.75853,-0.23839 1.08361,-0.5418 0.32509,-0.30342 0.54181,-0.66144 0.54181,-1.08362 0,-0.41177 -0.21672,-0.79147 -0.54181,-1.08362 -0.32508,-0.30341 -0.61722,-0.27047 -1.08361,-0.27047 z m 6.23079,0 c -0.46639,0 -0.74726,-0.0347 -1.08361,0.27047 -0.32509,0.29215 -0.54181,0.67185 -0.54181,1.08362 0,0.42218 0.21672,0.7802 0.54181,1.08362 0.33635,0.30341 0.61722,0.5418 1.08361,0.5418 0.47679,0 0.75853,-0.23839 1.08362,-0.5418 0.32508,-0.30342 0.54181,-0.66144 0.54181,-1.08362 0,-0.41177 -0.21673,-0.79147 -0.54181,-1.08362 -0.32509,-0.30341 -0.60683,-0.27047 -1.08362,-0.27047 z m -172.02411,2.43814 c -2.71337,0.47072 -4.95212,1.65247 -6.7726,3.52175 -2.21058,2.26476 -3.52175,5.22303 -3.52175,8.39803 0,3.60844 1.57124,6.25247 4.33446,8.39803 2.52483,1.93967 5.54812,2.97994 9.21074,2.97994 1.99386,0 4.0744,-0.42217 6.2308,-1.08361 2.15639,-0.67185 3.25085,-0.95359 3.25085,-1.35452 l 0,-6.77261 c 0,-1.11612 0.30341,-1.80964 0.81228,-2.16723 0.30341,-0.21672 0.69351,-0.48719 1.62542,-0.54181 l 0,-0.54181 -9.48164,0 0,0.54181 c 1.37619,0.078 2.29726,0.228 2.70904,0.54181 0.41177,0.32509 0.54181,1.12696 0.54181,2.43814 l 0,5.68898 c 0,0.37884 -0.0434,0.6181 -0.27047,0.81228 -0.21673,0.19505 -0.73686,0.27047 -1.62543,0.54181 -0.55308,0.16298 -1.0186,0.46552 -1.62542,0.54181 -0.60683,0.078 -1.17031,0 -1.62543,0 -2.67653,0 -4.95213,-0.94275 -6.7726,-2.70904 -1.82048,-1.7663 -2.70904,-4.17193 -2.70904,-7.31441 0,-3.8035 0.87773,-6.46919 2.70904,-8.12713 1.82047,-1.66877 3.82517,-2.43813 6.23079,-2.43813 2.37312,0 4.47534,0.47679 5.95989,1.89633 0.81228,0.81227 1.39787,2.13472 2.16724,3.79265 l 1.08361,0 -0.5418,-7.0435 -0.81228,0 c -0.16211,0.35716 -0.31382,0.62849 -0.54181,0.81228 -0.22799,0.19505 -0.54181,0.27047 -1.08362,0.27047 -0.20545,0 -1.04027,-0.17338 -2.43814,-0.54181 -1.4087,-0.36843 -2.88242,-0.54181 -4.33446,-0.54181 -1.0023,0 -1.80444,-0.15691 -2.70904,0 z m 327.79397,0 c -2.71805,0.47072 -4.95212,1.65247 -6.7726,3.52175 -2.21058,2.26476 -3.25085,5.22303 -3.25085,8.39803 0,3.60844 1.28951,6.25247 4.06356,8.39803 2.51399,1.93967 5.81902,2.97994 9.48165,2.97994 1.99385,0 4.0744,-0.42217 6.23079,-1.08361 2.1564,-0.67185 3.25085,-0.95359 3.25085,-1.35452 l 0,-6.77261 c 0,-1.11612 0.026,-1.80964 0.54181,-2.16723 0.30341,-0.21672 0.97525,-0.48719 1.89633,-0.54181 l 0,-0.54181 -9.48165,0 0,0.54181 c 1.3762,0.078 2.29727,0.228 2.70905,0.54181 0.4005,0.32509 0.5418,1.12696 0.5418,2.43814 l 0,5.68898 c 0,0.37884 -0.052,0.6181 -0.27047,0.81228 -0.21672,0.19505 -0.73686,0.27047 -1.62542,0.54181 -0.55308,0.16298 -1.27867,0.46552 -1.89633,0.54181 -0.60683,0.078 -1.17031,0 -1.62542,0 -2.6657,0 -4.68123,-0.94275 -6.5017,-2.70904 -1.82048,-1.7663 -2.97995,-4.17193 -2.97995,-7.31441 0,-3.8035 1.15947,-6.46919 2.97995,-8.12713 1.83131,-1.66877 3.82516,-2.43813 6.23079,-2.43813 2.36229,0 4.21527,0.47679 5.68899,1.89633 0.82355,0.81227 1.66877,2.13472 2.43813,3.79265 l 0.81228,0 -0.27047,-7.0435 -0.81228,0 c -0.16211,0.35716 -0.31381,0.62849 -0.5418,0.81228 -0.228,0.19505 -0.55308,0.27047 -1.08362,0.27047 -0.21672,0 -1.02944,-0.17338 -2.43814,-0.54181 -1.39786,-0.36843 -2.88242,-0.54181 -4.33446,-0.54181 -1.0056,0 -2.07396,-0.15691 -2.97995,0 z m 73.68592,0.27047 0,0.54181 c 1.37619,0.0867 2.02636,0.45512 2.43814,0.81228 0.4005,0.36843 0.81228,1.22448 0.81228,2.43813 l 0,14.62883 c 0,1.47371 -0.18465,2.36228 -0.54181,2.70904 -0.36843,0.34675 -1.24616,0.67184 -2.70904,0.81228 l 0,0.5418 10.29435,0 0,-0.5418 c -1.36535,-0.098 -2.29726,-0.18465 -2.70904,-0.54181 -0.41177,-0.34676 -0.54181,-1.20282 -0.54181,-2.43814 l 0,-7.04351 11.37798,0 0,6.5017 c 0,1.47372 -0.18465,2.35145 -0.54181,2.70904 -0.36843,0.34676 -1.23532,0.68312 -2.70904,0.81228 l 0,0.54181 10.29435,0 0,-0.54181 c -1.37619,-0.10836 -2.3081,-0.19505 -2.70904,-0.54181 -0.41177,-0.34675 -0.54181,-1.20281 -0.54181,-2.43813 l 0,-15.17063 c 0,-1.21365 0.13004,-2.06971 0.54181,-2.43814 0.40051,-0.35716 1.33285,-0.72646 2.70904,-0.81228 l 0,-0.54181 -10.29435,0 0,0.54181 c 1.39786,0.0867 2.29726,0.45512 2.70904,0.81228 0.4005,0.36843 0.54181,1.22449 0.54181,2.43814 l 0,6.5017 -11.37798,0 0,-6.5017 c 0,-1.21365 0.13004,-2.06971 0.54181,-2.43814 0.41178,-0.35716 1.34369,-0.72646 2.70904,-0.81228 l 0,-0.54181 -10.29435,0 z m -149.80997,1.89676 c -3.61928,0 -6.49086,1.26783 -8.66893,3.52176 -1.99386,2.03719 -2.97995,4.4645 -2.97995,7.31441 0,3.25085 1.28951,5.65647 3.79266,7.58531 2.26476,1.74462 4.83293,2.70904 8.12712,2.70904 1.79881,0 3.74932,-0.21672 5.68899,-0.81228 1.93967,-0.60682 2.97995,-1.26783 2.97995,-1.62542 l 0,-5.95989 c 0,-1.00776 0.0867,-1.57124 0.5418,-1.89633 0.28174,-0.20632 1.06195,-0.48719 1.89633,-0.54181 l 0,-0.54181 -8.66893,0 0,0.54181 c 1.23532,0.078 2.06971,0.26007 2.43814,0.54181 0.36843,0.29214 0.54181,1.24616 0.54181,2.43814 l 0,4.87627 c 0,0.33549 -0.0694,0.36843 -0.27047,0.54181 -0.19506,0.17338 -0.82355,0.57475 -1.62543,0.81228 -0.49846,0.1517 -1.07278,0.19505 -1.62542,0.27047 -0.54181,0.0607 -0.94275,0 -1.35452,0 -2.40563,0 -4.32363,-0.58515 -5.95989,-2.16723 -1.63627,-1.59292 -2.43814,-3.94437 -2.43814,-6.77261 0,-3.42422 0.79061,-5.81902 2.43814,-7.31441 1.63626,-1.49539 3.52175,-2.16723 5.68898,-2.16723 2.13473,0 3.82517,0.61809 5.14718,1.89633 0.73686,0.73686 1.47372,1.76629 2.16723,3.25085 l 0.81228,0 -0.27047,-6.5017 -0.81228,0 c -0.1413,0.32508 -0.33635,0.63977 -0.54181,0.81228 -0.20545,0.17338 -0.60682,0.27047 -1.08361,0.27047 -0.19505,0 -0.8994,-0.21672 -2.16724,-0.54181 -1.26783,-0.33549 -2.48148,-0.54181 -3.79265,-0.54181 z m -233.79024,0.27047 0,0.81228 c 1.24615,0.078 2.08054,0.20632 2.43813,0.54181 0.36843,0.33549 0.54181,1.08362 0.54181,2.16723 l 0,13.54521 c 0,1.14863 -0.17338,1.88549 -0.54181,2.16723 -0.36843,0.28174 -1.20281,0.42218 -2.43813,0.54181 l 0,0.54181 18.15057,0 1.62543,-5.14718 -0.81228,0 c -0.8669,1.74462 -1.89633,2.79573 -2.97995,3.25085 -1.09445,0.45512 -2.86075,0.81228 -5.14718,0.81228 -2.11305,0 -3.37004,-0.16298 -3.79265,-0.27047 -0.43345,-0.10836 -0.54181,-0.47679 -0.54181,-1.08362 l 0,-7.58531 5.14718,0 c 1.43037,0 2.31893,0.16297 2.70904,0.5418 0.4005,0.39011 0.83481,1.24616 1.08361,2.43814 l 0.54181,0 0,-7.04351 -0.54181,0 c -0.23839,1.18115 -0.69351,2.04804 -1.08361,2.43814 -0.40051,0.3901 -1.26783,0.54181 -2.70904,0.54181 l -5.14718,0 0,-6.7726 c 0,-0.40051 -0.11877,-0.66144 0,-0.81228 0.11876,-0.14131 0.58515,-0.27047 1.08361,-0.27047 l 4.60537,0 c 1.97219,0 3.21834,0.1517 3.79266,0.54181 0.57388,0.4005 0.79061,1.35452 1.08362,2.70904 l 1.08361,0 -0.27047,-4.60537 -17.87967,0 z m 21.94323,0 0,0.81228 c 1.36535,0.0607 2.32977,0.20632 2.70904,0.54181 0.3901,0.32509 0.54181,1.06194 0.54181,2.16723 l 0,12.46159 c 0,1.61459 -0.15171,2.53566 -0.54181,2.97995 -0.40051,0.43344 -1.32201,0.68311 -2.70904,0.81228 l 0,0.5418 7.85622,0 0,-0.5418 c -1.21365,-0.11963 -1.82048,-0.21673 -2.16724,-0.54181 -0.5418,-0.50887 -0.81227,-1.57125 -0.81227,-3.25085 l 0,-12.19069 8.39802,16.52515 0.54181,0 8.66893,-17.33786 0,13.81611 c 0,1.30034 -0.20545,2.10222 -0.54181,2.43814 -0.33635,0.34676 -1.35452,0.44385 -2.70904,0.54181 l 0,0.5418 9.48165,0 0,-0.5418 c -1.24616,-0.098 -2.08055,-0.228 -2.43814,-0.54181 -0.36843,-0.31382 -0.54181,-1.04027 -0.54181,-2.16723 l 0,-13.54521 c 0,-1.08362 0.17338,-1.83131 0.54181,-2.16723 0.35716,-0.33549 1.19198,-0.46552 2.43814,-0.54181 l 0,-0.81228 -6.5017,0 -7.58532,15.44153 -7.85622,-15.44153 -6.7726,0 z m 31.42487,0 0,0.81228 c 1.24616,0.078 2.08055,0.20632 2.43814,0.54181 0.36843,0.33549 0.54181,1.08362 0.54181,2.16723 l 0,13.54521 c 0,1.14863 -0.17338,1.88549 -0.54181,2.16723 -0.36843,0.28174 -1.20281,0.42218 -2.43814,0.54181 l 0,0.54181 18.15058,0 1.62542,-5.14718 -1.08361,0 c -0.8669,1.74462 -1.62543,2.79573 -2.70904,3.25085 -1.09446,0.45512 -2.86075,0.81228 -5.14718,0.81228 -2.11305,0 -3.37005,-0.16298 -3.79266,-0.27047 -0.42304,-0.10836 -0.54181,-0.47679 -0.54181,-1.08362 l 0,-7.58531 5.14718,0 c 1.43037,0 2.31894,0.16297 2.70904,0.5418 0.40051,0.39011 0.56348,1.24616 0.81228,2.43814 l 0.81228,0 0,-7.04351 -0.81228,0 c -0.23839,1.18115 -0.42304,2.04804 -0.81228,2.43814 -0.4005,0.3901 -1.26783,0.54181 -2.70904,0.54181 l -5.14718,0 0,-6.7726 c 0,-0.40051 -0.11876,-0.66144 0,-0.81228 0.11877,-0.14131 0.58516,-0.27047 1.08362,-0.27047 l 4.60537,0 c 1.98302,0 3.21834,0.1517 3.79266,0.54181 0.57388,0.4005 0.7906,1.35452 1.08361,2.70904 l 1.08362,0 -0.27047,-4.60537 -17.87967,0 z m 22.21414,0 0,0.81228 c 1.37619,0.0607 2.0372,0.21673 2.43814,0.54181 0.41177,0.32509 0.81228,1.04027 0.81228,2.16723 l 0,13.54521 c 0,1.18114 -0.40051,1.88549 -0.81228,2.16723 -0.40051,0.28174 -1.06195,0.45512 -2.43814,0.54181 l 0,0.54181 10.02345,0 0,-0.54181 c -1.37619,-0.0867 -2.3081,-0.26007 -2.70904,-0.54181 -0.41177,-0.28174 -0.81228,-0.98609 -0.81228,-2.16723 l 0,-13.54521 c 0,-1.12696 0.40051,-1.84214 0.81228,-2.16723 0.40051,-0.32508 1.33285,-0.47679 2.70904,-0.54181 l 0,-0.81228 -10.02345,0 z m 12.46159,0 0,0.81228 c 0.69351,0.0173 1.00776,-0.11963 1.35452,0 0.34676,0.13004 0.86689,0.56348 1.35452,1.08362 l 0.54181,0.54181 0,13.5452 c 0,1.61459 -0.41177,2.53566 -0.81228,2.97995 -0.4005,0.43344 -1.04027,0.68311 -2.43814,0.81228 l 0,0.5418 7.85622,0 0,-0.5418 c -1.22448,-0.11963 -2.08054,-0.21673 -2.43813,-0.54181 -0.53054,-0.50887 -0.81228,-1.57125 -0.81228,-3.25085 l 0,-11.91978 14.89972,16.79605 0.54181,0 0,-16.25424 c 0,-1.61459 0.3797,-2.53567 0.81228,-2.97995 0.42304,-0.45512 1.14863,-0.69351 2.43814,-0.81228 l 0,-0.81228 -7.85622,0 0,0.81228 c 1.24616,0.098 2.08054,0.21673 2.43813,0.54181 0.55308,0.50887 0.81228,1.57124 0.81228,3.25085 l 0,10.29436 -13.00339,-14.89973 -5.68899,0 z m 25.73589,0 0,0.81228 c 0.69352,0.0173 1.00776,-0.11963 1.35452,0 0.34676,0.13004 0.85562,0.56348 1.35452,1.08362 l 0.54181,0.54181 0,13.5452 c 0,1.61459 -0.42304,2.53566 -0.81228,2.97995 -0.4005,0.43344 -1.04027,0.68311 -2.43814,0.81228 l 0,0.5418 7.85622,0 0,-0.5418 c -1.22492,-0.11963 -2.08054,-0.21673 -2.43813,-0.54181 -0.54181,-0.50887 -0.81228,-1.57125 -0.81228,-3.25085 l 0,-11.91978 14.89972,16.79605 0.54181,0 0,-16.25424 c 0,-1.61459 0.3797,-2.53567 0.81228,-2.97995 0.42304,-0.45512 1.14863,-0.69351 2.43814,-0.81228 l 0,-0.81228 -7.85622,0 0,0.81228 c 1.24616,0.098 2.08054,0.21673 2.43814,0.54181 0.55307,0.50887 0.81227,1.57124 0.81227,3.25085 l 0,10.29436 -13.00339,-14.89973 -5.68899,0 z m 25.73589,0 0,0.81228 c 1.27867,0.0867 2.05887,0.228 2.43814,0.54181 0.3797,0.31382 0.54181,1.05111 0.54181,2.16723 l 0,9.48165 c 0,1.89633 0.36843,3.4459 1.08361,4.60537 1.31118,2.15639 3.94437,3.25085 7.58532,3.25085 3.69513,0 5.9924,-1.06195 7.31441,-3.25085 0.71519,-1.19198 1.08361,-2.76322 1.08361,-4.87628 l 0,-8.12712 c 0,-1.61459 0.14131,-2.53566 0.54181,-2.97995 0.40051,-0.44384 1.39787,-0.68311 2.70904,-0.81227 l 0,-0.81228 -7.85622,0 0,0.81228 c 1.23533,0.10836 2.0047,0.11963 2.43814,0.5418 0.44385,0.42218 0.81228,1.58208 0.81228,3.25085 l 0,8.12713 c 0,1.96134 -0.28174,3.39172 -0.81228,4.33446 -0.94274,1.67961 -2.92576,2.43814 -5.68898,2.43814 -2.51399,0 -4.24778,-0.80188 -5.14718,-2.43814 -0.47679,-0.8994 -0.54181,-2.17807 -0.54181,-3.79266 l 0,-9.75254 c 0,-1.12696 0.15171,-1.85299 0.54181,-2.16724 0.3797,-0.31381 1.14863,-0.46552 2.43813,-0.5418 l 0,-0.81228 -9.48164,0 z m 26.0068,0 -0.27048,5.41809 0.81228,0 c 0.34676,-1.6471 0.68312,-2.75239 1.35452,-3.25085 0.67185,-0.4872 2.19975,-0.81228 4.06357,-0.81228 l 1.89632,0 0,15.44153 c 0,1.32201 -0.18464,2.10222 -0.5418,2.43814 -0.34676,0.32508 -1.27867,0.44385 -2.70905,0.54181 l 0,0.5418 9.75255,0 0,-0.5418 c -1.37619,-0.098 -2.3081,-0.26007 -2.70904,-0.54181 -0.41177,-0.28174 -0.54181,-0.98609 -0.54181,-2.16723 l 0,-15.71244 1.89633,0 c 1.96135,0 3.18583,0.32508 3.79266,0.81228 0.60682,0.49846 1.23532,1.61458 1.62542,3.25085 l 0.81228,0 -0.27047,-5.41809 -18.96328,0 z m 23.02684,0 -0.81227,5.41809 0.81227,0 c 0.28174,-1.30034 0.85563,-2.18891 1.35452,-2.70905 0.82355,-0.88856 2.10222,-1.35452 4.06357,-1.35452 l 7.85622,0 -14.89973,18.69239 0,0.27047 19.23419,0 0.81228,-5.41808 -0.81228,0 c -0.45512,1.43037 -1.06194,2.44897 -1.62542,2.97994 -0.91024,0.85562 -2.35145,1.35452 -4.33447,1.35452 l -8.66893,0 14.62882,-18.69238 0,-0.54181 -17.60877,0 z m 20.58872,0 0,0.81228 c 1.36535,0.0607 2.3081,0.21673 2.70904,0.54181 0.41177,0.32509 0.54181,1.04027 0.54181,2.16723 l 0,13.54521 c 0,1.18114 -0.13004,1.88549 -0.54181,2.16723 -0.40051,0.28174 -1.34369,0.45512 -2.70904,0.54181 l 0,0.54181 10.02345,0 0,-0.54181 c -1.37619,-0.0867 -2.29727,-0.26007 -2.70904,-0.54181 -0.40051,-0.28174 -0.54181,-0.98609 -0.54181,-2.16723 l 0,-13.54521 c 0,-1.12696 0.1413,-1.84214 0.54181,-2.16723 0.41177,-0.32508 1.33285,-0.47679 2.70904,-0.54181 l 0,-0.81228 -10.02345,0 z m 38.19748,0 0,0.81228 c 1.25699,0.078 2.08054,0.20632 2.43813,0.54181 0.36843,0.33549 0.54181,1.08362 0.54181,2.16723 l 0,13.54521 c 0,1.14863 -0.17338,1.88549 -0.54181,2.16723 -0.36843,0.28174 -1.19198,0.42218 -2.43813,0.54181 l 0,0.54181 18.42147,0 1.35453,-5.14718 -0.81228,0 c -0.8669,1.74462 -1.8855,2.79573 -2.97995,3.25085 -1.08362,0.45512 -2.86075,0.81228 -5.14718,0.81228 -2.11305,0 -3.35921,-0.16298 -3.79265,-0.27047 -0.42305,-0.10836 -0.54181,-0.47679 -0.54181,-1.08362 l 0,-7.58531 5.14718,0 c 1.41953,0 2.31893,0.16297 2.70904,0.5418 0.4005,0.39011 0.83481,1.24616 1.08361,2.43814 l 0.81228,0 0,-7.04351 -0.81228,0 c -0.23839,1.18115 -0.69351,2.04804 -1.08361,2.43814 -0.40051,0.3901 -1.27867,0.54181 -2.70904,0.54181 l -5.14718,0 0,-6.7726 c 0,-0.40051 -0.11877,-0.66144 0,-0.81228 0.10836,-0.14131 0.58515,-0.27047 1.08361,-0.27047 l 4.60537,0 c 1.97219,0 3.21834,0.1517 3.79266,0.54181 0.56348,0.4005 1.07278,1.35452 1.35452,2.70904 l 0.81228,0 -0.27047,-4.60537 -17.87967,0 z m 80.72942,0 0,0.81228 c 1.35452,0.0607 2.31894,0.20632 2.70904,0.54181 0.3797,0.32509 0.54181,1.06194 0.54181,2.16723 l 0,12.46159 c 0,1.61459 -0.1413,2.53566 -0.54181,2.97995 -0.3901,0.43344 -1.31118,0.68311 -2.70904,0.81228 l 0,0.5418 7.85622,0 0,-0.5418 c -1.22449,-0.11963 -2.08054,-0.21673 -2.43814,-0.54181 -0.53054,-0.50887 -0.81228,-1.57125 -0.81228,-3.25085 l 0,-12.19069 8.66893,16.52515 0.27047,0 8.66894,-17.33786 0,13.81611 c 0,1.30034 -0.20546,2.10222 -0.54181,2.43814 -0.33636,0.34676 -1.07278,0.44385 -2.43814,0.54181 l 0,0.5418 9.48164,0 0,-0.5418 c -1.25699,-0.098 -2.0697,-0.228 -2.43813,-0.54181 -0.35716,-0.31382 -0.54181,-1.04027 -0.54181,-2.16723 l 0,-13.54521 c 0,-1.08362 0.18465,-1.83131 0.54181,-2.16723 0.36843,-0.33549 1.18114,-0.46552 2.43813,-0.54181 l 0,-0.81228 -6.7726,0 -7.58531,15.44153 -7.58532,-15.44153 -6.7726,0 z m 31.42488,0 0,0.81228 c 1.35452,0.0607 2.3081,0.20632 2.70904,0.54181 0.4005,0.31382 0.54181,1.04027 0.54181,2.16723 l 0,13.54521 c 0,1.1378 -0.14131,1.85298 -0.54181,2.16723 -0.40051,0.31382 -1.35452,0.47679 -2.70904,0.54181 l 0,0.54181 11.10706,0 c 1.87466,0 3.32671,-0.078 4.60537,-0.54181 2.43814,-0.8994 3.79266,-2.48148 3.79266,-4.87627 0,-1.43038 -0.53054,-2.71988 -1.62542,-3.52176 -1.10529,-0.79147 -2.51399,-1.27866 -4.06356,-1.62542 1.25699,-0.27047 2.35144,-0.65017 2.97994,-1.08362 1.11613,-0.74813 1.62543,-1.80964 1.62543,-3.25085 0,-1.93967 -0.84523,-3.27252 -2.43814,-4.06356 -1.58208,-0.79147 -3.8035,-1.35452 -6.5017,-1.35452 l -9.48164,0 z m 7.0435,1.35452 c 0.16211,-0.10836 0.65017,0 1.35452,0 1.85299,0 3.15333,0.19505 4.06356,0.54181 1.6471,0.63977 2.43814,1.69044 2.43814,3.52176 0,1.54957 -0.74726,2.64402 -2.16723,3.25084 -0.74726,0.30342 -1.57124,0.52014 -2.70904,0.54181 l -3.25085,0 0,-6.7726 c 0,-0.48719 0.098,-0.97525 0.27047,-1.08362 z m -0.27047,8.93984 c 0.28174,0.009 0.41178,0 0.54181,0 l 1.08362,0 c 2.11305,0 3.78182,0.45512 5.14717,1.08362 1.35453,0.62849 2.16724,1.7988 2.16724,3.52175 0,1.72295 -0.72646,2.91493 -1.89633,3.52175 -1.15947,0.60683 -2.61152,0.81228 -4.33447,0.81228 -1.20281,0 -1.83131,-0.11963 -2.16723,-0.27047 -0.32508,-0.15171 -0.54181,-0.28174 -0.54181,-0.81228 l 0,-7.85622 z"
       id="path514"
       style="fill:#314b82;fill-opacity:1;fill-rule:nonzero;stroke:none" />
  </g>
</svg>
