<?xml version="1.0" encoding="UTF-8" standalone="no"?>
<!-- Created with Inkscape (http://www.inkscape.org/) -->

<svg
   version="1.1"
   id="svg105"
   width="697.39966"
   height="641.96387"
   viewBox="0 0 697.39966 641.96387"
   xmlns="http://www.w3.org/2000/svg"
   xmlns:svg="http://www.w3.org/2000/svg">
  <defs
     id="defs109" />
  <g
     id="layer2"
     transform="translate(-395.17255,-846.87207)">
    <path
       style="display:inline;fill:#FFFFFF"
       d="m 869.55907,1481.7691 c -7.15,-3.8621 -22,-11.9048 -33,-17.8727 -11,-5.968 -33.3679,-17.514 -49.7064,-25.6579 l -29.7064,-14.807 -8.7936,2.8955 c -10.9285,3.5985 -23.9005,4.5719 -29.5378,2.2164 -4.3839,-1.8317 -7.7468,-6.8144 -7.7521,-11.4859 0,-1.8231 0.9576,-5.5493 2.1325,-8.2804 1.175,-2.7312 1.9313,-5.1708 1.6808,-5.4213 -1.2745,-1.2746 -72.8259,-36.8871 -103.817,-51.6719 -35.563,-16.9658 -53.8437,-26.2984 -66,-33.694 l -6.5,-3.9545 -0.7797,37.1683 c -0.4289,20.4426 -0.5177,51.2309 -0.1974,68.4184 0.3798,20.3771 0.2375,31.25 -0.409,31.25 -1.5939,0 -2.0161,-6.3239 -3.1041,-46.5 -0.5659,-20.9 -1.8994,-51.4352 -2.9633,-67.856 l -1.9342,-29.856 -4.3061,-3.602 c -16.4326,-13.7456 -23.39535,-28.6467 -16.7229,-35.7892 3.3417,-3.577 6.5186,-5.0406 12.7834,-5.8894 l 5.3668,-0.7272 -0.6018,-5.6401 c -0.331,-3.1021 -1.0521,-13.5151 -1.6024,-23.1401 -0.5503,-9.625 -1.477,-25.825 -2.0593,-36 -0.5823,-10.175 -1.945,-29.75 -3.0281,-43.5 -3.587,-45.5359 -4.0806,-53.8486 -4.2546,-71.6503 l -0.1725,-17.6502 -2.8573,1.4776 c -3.2407,1.6758 -20.91538,11.496 -40.1575,22.3117 -20.29627,11.4083 -55.04888,31.7182 -65.3023,38.1636 -9.38096,5.897 -11.70727,6.8763 -10.95192,4.6102 0.44984,-1.3495 10.13221,-7.5897 42.10492,-27.1362 11.46788,-7.0109 33.86448,-21.3403 49.77021,-31.8432 23.21239,-15.3276 29.03029,-19.608 29.48099,-21.6897 4.8016,-22.1816 9.6297,-31.8758 17.4989,-35.1353 5.8972,-2.4427 13.3023,1.1038 17.9261,8.5853 l 2.1378,3.4591 13.1677,-8.9153 c 7.2422,-4.9034 23.2926,-15.5306 35.6676,-23.61603 12.375,-8.0854 35.775,-23.8199 52,-34.9656 31.5263,-21.6568 50.218,-33.6726 59.3419,-38.1474 3.112,-1.5262 5.6492,-3.0187 5.6384,-3.3167 -0.045,-1.2352 -90.748,-54.1793 -108.7303,-63.4667 -8.7189,-4.5031 -11.1653,-6.5749 -7.7636,-6.5749 1.3714,0 28.502,14.2074 53.5136,28.0234 5.775,3.19 24.7676,12.914 42.2058,21.6088 l 31.7058,15.8088 8.7942,-2.8957 c 10.9291,-3.5987 23.9009,-4.5721 29.5384,-2.2166 4.4509,1.8597 7.7518,6.8376 7.7392,11.6713 0,1.925 -1.0458,5.7412 -2.3129,8.4805 l -2.3038,4.9805 36.5666,18.411 c 20.1117,10.126 52.0716,25.7981 71.022,34.8267 34.2057,16.29693 56.5741,27.86203 64.865,33.53693 2.3761,1.6264 4.5344,2.743 4.7962,2.4812 0.2617,-0.2617 0.5074,-31.13013 0.546,-68.59643 0.039,-37.4662 0.4098,-68.1204 0.825,-68.1204 1.3295,0 1.9212,8.8222 2.5822,38.5 0.3553,15.95 1.6711,46.223 2.924,67.2734 l 2.278,38.27353 4.8556,4.2265 c 10.0304,8.7309 15.8414,16.3108 17.99787,23.4765 2.8931,9.6128 -2.52717,16.2396 -14.59197,17.8401 l -5.2796,0.7003 0.5988,6.1048 c 0.5638,5.7481 1.1207,14.7886 3.672,59.6049 0.5792,10.175 2.1611,32.45 3.5154,49.5 2.9267,36.8488 4.3757,66.4351 3.7098,75.75 -0.2654,3.7125 -0.2689,6.75 -0.01,6.75 0.4877,0 18.04367,-9.7554 46.25803,-25.7044 26.7352,-15.1129 51.4648,-29.558 61.8929,-36.1531 6.506,-4.1146 10.2307,-5.9189 10.8796,-5.27 1.1318,1.1318 -0.3418,2.1174 -34.7725,23.256 -39.2476,24.0959 -85.47313,54.8809 -86.00203,57.2751 -0.2548,1.153 -1.1651,5.2464 -2.023,9.0964 -3.6794,16.5125 -11.6603,27.5 -19.9749,27.5 -4.7983,0 -11.428,-4.9477 -14.4186,-10.7605 -1.1432,-2.2221 -1.4134,-2.0914 -15.8722,7.6739 -8.0901,5.464 -24.1592,16.0975 -35.7092,23.6301 -11.55,7.5325 -34.275,22.8141 -50.5,33.959 -31.4946,21.6336 -50.1998,33.6554 -59.3419,38.1391 -3.1119,1.5263 -5.6581,3.0238 -5.6581,3.3279 0,0.304 7.5375,5.0238 16.75,10.4884 9.2125,5.4646 21.025,12.4899 26.25,15.6118 14.9713,8.9454 55.5704,32.1169 65.7402,37.5206 5.082,2.7003 9.2445,5.2472 9.25,5.6597 0.025,1.8757 -4.4417,0.155 -16.4902,-6.353 z m -133.0058,-64.9665 3.9943,-1.1594 -7.4943,-3.836 c -4.1218,-2.1099 -7.9845,-3.8584 -8.5837,-3.8856 -2.3211,-0.1054 -4.5195,8.4779 -2.6605,10.3876 0.9116,0.9364 9.2704,0.082 14.7442,-1.5066 z m 27.5781,-13.0168 c 5.8483,-3.3475 19.1371,-12.1908 29.5305,-19.6518 41.5453,-29.8236 78.2168,-53.3356 128.1922,-82.1907 5.4566,-3.1505 7.1648,-4.6353 6.7782,-5.8916 -5.6293,-18.2908 -6.8531,-47.3332 -3.0594,-72.6053 3.5627,-23.7326 14.0994,-52.5743 19.207,-52.5743 1.8675,0 1.7228,0.6195 -4.0863,17.5 -7.8195,22.7222 -11.7138,53.0589 -9.7341,75.8288 1.2176,14.005 3.9663,28.6712 5.3734,28.6712 0.55,0 5.6635,-2.5833 11.3632,-5.7407 l 10.363,-5.7407 v -15.1525 c 0,-8.3339 -0.6632,-21.4367 -1.4737,-29.1173 -4.7877,-45.3663 -6.338,-72.1876 -7.343,-127.0365 l -0.6833,-37.2877 -10.3426,-3.4686 c -19.3592,-6.4925 -43.5001,-20.5309 -60.8246,-35.3706 -16.8116,-14.4005 -34.2353,-37.03443 -29.815,-38.73063 0.8627,-0.3311 1.6866,-0.4338 1.831,-0.2284 6.9377,9.87223 23.3885,26.87733 34.6512,35.81873 18.3633,14.5787 40.9085,26.8001 59.75,32.3896 l 5.25,1.5575 v -12.9134 -12.9134 l -9.5276,-5.6073 c -10.2132,-6.0108 -20.625,-11.0926 -45.9724,-22.4382 -29.8704,-13.37013 -77.7129,-38.24543 -115,-59.79323 -7.15,-4.1319 -13.3409,-7.7019 -13.7575,-7.9333 -0.4166,-0.2314 -3.3416,2.0037 -6.5,4.9669 -26.0655,24.4549 -72.0648,44.8658 -101.7425,45.1454 -8.0027,0.075 -10,-0.1885 -10,-1.3217 0,-1.0141 2.8378,-1.8958 10,-3.1069 26.2155,-4.4328 54.168,-15.5708 76.5,-30.4823 10.1814,-6.7983 22.8177,-17.3073 22.9309,-19.0706 0.038,-0.5916 -4.6733,-3.9007 -10.4696,-7.3534 l -10.5387,-6.2778 -10.7714,6.1654 c -5.9243,3.3909 -20.1944,12.9212 -31.7113,21.1783 -39.8959,28.6038 -72.9372,49.82123 -122.7485,78.82263 -7.0297,4.0928 -10.6311,6.7554 -10.301,7.6156 0.2791,0.7275 1.1839,4.6082 2.0106,8.6238 5.4897,26.6664 4.054,58.5079 -3.9188,86.9165 -3.8707,13.7918 -10.9877,29.1856 -13.7322,29.7021 -2.418,0.4551 -2.2417,-0.7262 1.6687,-11.1789 11.634,-31.0987 15.1972,-71.1736 9.0141,-101.3798 -0.8735,-4.2673 -1.9672,-8.1502 -2.4306,-8.6288 -0.4715,-0.4869 -5.5011,1.7106 -11.4223,4.9907 l -10.5799,5.8608 v 15.2822 c 0,8.4051 0.8887,23.9343 1.9748,34.5093 4.3475,42.329 6.2762,80.7232 7.3122,145.5591 l 0.213,13.3318 8.6446,2.7785 c 19.2656,6.1923 43.0462,19.8842 61.6582,35.5004 15.0842,12.6561 31.1574,32.1409 31.1878,37.8074 0.016,2.947 -2.3425,1.9165 -5.3544,-2.3395 -4.34,-6.1326 -18.9966,-21.2045 -27.5921,-28.3737 -17.3038,-14.4327 -39.2738,-27.3192 -57.8537,-33.9343 -11.7582,-4.1864 -11.1904,-4.688 -11.1904,9.885 v 12.4874 l 4.25,2.6969 c 7.3296,4.6511 29.6166,15.8236 45.75,22.9345 31.569,13.9144 72.2343,34.8652 115.8287,59.6752 l 19.3287,11.0001 5.6713,-5.489 c 24.6547,-23.8623 71.9125,-44.8647 101.6713,-45.185 8.009,-0.086 10,0.1743 10,1.3083 0,1.0142 -2.8378,1.8958 -10,3.1069 -33.0268,5.5846 -69.5987,22.4196 -92.5,42.58 -3.575,3.1471 -6.5,6.3329 -6.5,7.0795 0,1.0898 18.7457,13.2783 20.4695,13.3093 0.2582,0 5.2545,-2.7304 11.1028,-6.0779 z m -16.601,-73.461 c -5.438,-4.1738 -13.9561,-10.11 -18.9292,-13.1915 -9.5812,-5.9367 -12.8253,-7.642 -71.2775,-37.4674 -38.557,-19.6739 -45.2646,-23.9965 -45.2646,-29.1702 0,-4.2091 2.0223,-4.9087 10.4826,-3.6262 21.6554,3.2826 52.6186,16.1065 76.0174,31.484 6.8792,4.5209 15.1248,11.9851 34.9915,31.6752 18.3427,18.1798 25.6788,26.0731 24.9292,26.8227 -0.7497,0.7497 -3.9718,-1.171 -10.9494,-6.5266 z m 0.7287,-7.6527 c -1.9771,-1.9771 -1.4152,-3.6737 3.188,-9.626 16.5525,-21.4036 55.2716,-48.5405 81.612,-57.1989 11.9649,-3.9331 64.1341,-17.1744 64.8488,-16.4596 1.1344,1.1344 -2.7636,3.3562 -12.9935,7.4059 -11.9819,4.7433 -27.7412,13.2136 -41.8553,22.4963 -5.225,3.4364 -19.85,12.9253 -32.5,21.0864 -12.65,8.161 -28.175,18.2024 -34.5,22.314 -6.325,4.1116 -13.3,8.2997 -15.5,9.3068 -4.5923,2.1023 -10.546,2.4291 -12.3,0.6751 z m 0,-58 c -1.8192,-1.8192 -1.437,-3.8 0.7332,-3.8 1.0632,0 6.5757,-3.0705 12.25,-6.8234 5.6742,-3.7528 12.3418,-7.9843 14.8168,-9.4033 7.7258,-4.4294 42.6217,-20.7733 44.3532,-20.7733 3.8378,0 0.8723,2.2328 -11.7078,8.8151 -7.3451,3.8432 -20.2138,11.5766 -28.5971,17.1853 -21.6362,14.4754 -28.8297,17.8182 -31.8483,14.7996 z m -144.1683,-2.9667 c 0.017,-1.8333 0.6837,-7.8333 1.4806,-13.3333 1.8365,-12.6759 1.8347,-33.7288 -0.01,-68 -4.3217,-80.4678 -4.3085,-81.6179 0.9791,-85.0825 3.3998,-2.2276 5.2396,-0.8306 8.1274,6.1711 7.5761,18.3694 12.169,51.0654 11.0147,78.4114 -0.6823,16.1664 -1.9091,22.1339 -11.6148,56.5 -3.2619,11.55 -6.3074,22.5444 -6.7677,24.432 -1.1313,4.6389 -3.2546,5.2345 -3.2134,0.9013 z m 115.9683,-5.4606 c -6.325,-4.0912 -18.925,-11.0693 -28,-15.507 -18.8403,-9.2128 -30,-16.1882 -30,-18.7514 0,-0.9526 0.6429,-2.6055 1.4286,-3.6732 1.3581,-1.8453 1.4631,-1.8519 2.129,-0.1336 0.3916,1.0104 6.4868,4.7054 13.8215,8.3787 7.2165,3.6141 21.4459,12.2083 31.6209,19.0982 18.7762,12.714 23,15.9076 23,17.3899 0,1.7802 -2.9423,0.3508 -14,-6.8016 z m 156.2995,-15.6227 c -2.1946,-2.9018 -7.2553,-17.9768 -9.1478,-27.25 -3.7756,-18.4991 -4.6198,-27.6201 -4.5818,-49.5 0.036,-20.7048 0.1549,-21.9809 3.2181,-34.5 1.7494,-7.15 4.5752,-17.725 6.2795,-23.5 1.7043,-5.775 4.5619,-15.8752 6.3503,-22.4449 1.7884,-6.5697 3.776,-12.1197 4.4169,-12.3334 1.5646,-0.5215 1.4808,2.4973 -0.444,15.9939 -1.9836,13.9088 -1.5327,41.6633 1.6209,99.7844 1.1788,21.725 1.8435,41.9229 1.4771,44.8842 -0.9275,7.4968 -6.3025,12.6827 -9.1892,8.8658 z m -49.6242,-28.408 c -0.3618,-0.3619 -0.2325,-1.1706 0.2875,-1.7972 0.5912,-0.7124 0.602,-6.5542 0.029,-15.592 -0.5891,-9.289 -0.5544,-18.9189 0.097,-26.9528 0.5577,-6.875 1.4055,-17.9984 1.8841,-24.7186 0.837,-11.7525 1.3392,-14.2815 2.8361,-14.2814 0.6072,10e-5 0.8582,11.0587 1.5343,67.5984 0.1174,9.8191 -0.187,13.5119 -1.2158,14.75 -1.3914,1.6744 -4.2504,2.1954 -5.4522,0.9936 z m -171.3217,-26.592 c 0.081,-11.6875 -0.2415,-29.125 -0.7156,-38.75 -0.8891,-18.052 -0.3654,-22.4 2.847,-23.6326 2.4045,-0.9227 4.9467,0.4074 3.6848,1.9279 -0.7151,0.8617 -0.805,6.1624 -0.279,16.4386 0.4271,8.3418 0.4275,19.8017 10e-4,25.4665 -0.4264,5.6648 -1.237,16.5065 -1.8012,24.0927 -0.5643,7.5862 -1.292,14.2237 -1.6173,14.75 -1.8267,2.9556 -2.2519,-1.1151 -2.1198,-20.2931 z m 167.0888,-68.0576 c -0.3916,-1.0103 -6.4875,-4.706 -13.8215,-8.3794 -13.8447,-6.9345 -54.6137,-33.8532 -54.6183,-36.063 -0.001,-0.6875 0.3472,-1.25 0.7747,-1.25 0.4275,0 6.165,3.4045 12.75,7.5657 6.585,4.1611 20.0874,11.5407 30.0053,16.3991 17.3624,8.5052 28.4674,15.6701 28.4674,18.3673 0,0.7071 -0.6429,2.1591 -1.4286,3.2267 -1.3581,1.8454 -1.4631,1.852 -2.129,0.1336 z m -156.4424,-6.6062 c 0,-0.5026 6.0096,-4.0582 13.3546,-7.9014 7.3451,-3.8431 20.0576,-11.4702 28.25,-16.949 15.5105,-10.373 26.0429,-16.2358 29.1669,-16.2358 2.1306,0 4.2285,1.8356 4.2285,3.7 0,0.715 -0.9771,1.3 -2.1713,1.3 -1.1942,0 -2.8817,0.611 -3.75,1.3578 -5.764,4.9574 -27.3371,17.2892 -44.9842,25.7143 -19.8454,9.4746 -24.0945,11.0642 -24.0945,9.0141 z m -75.8143,-15.1434 c 0.2457,-0.7372 6.3196,-3.8661 13.4975,-6.9533 19.9801,-8.5932 24.8153,-11.5308 108.3168,-65.8081 17.2403,-11.2065 23.6029,-13.4357 27.4286,-9.61 2.2633,2.2634 2.0514,2.9599 -2.8166,9.2545 -12.2423,15.8302 -37.781,35.9123 -61.9135,48.6848 -12.574,6.6551 -24.042,10.4646 -55.6985,18.5022 -31.2829,7.9428 -29.3528,7.5456 -28.8143,5.9299 z m 272.8143,-7.0808 c -16.519,-2.3694 -52.7432,-17.6812 -72.7664,-30.758 -10.1804,-6.6486 -18.0271,-13.8278 -44.1669,-40.4094 -11.5937,-11.7896 -17.0992,-18.06213 -16.4358,-18.72553 0.6634,-0.6634 4.1583,1.43873 10.4333,6.27563 16.8294,12.9721 23.9858,17.1106 70.4358,40.7326 59.7737,30.3976 62.3752,31.8929 64.5285,37.0914 2.533,6.1152 -0.2935,7.4766 -12.0285,5.7933 z m 89.7351,218.7464 c 2.213,-4.555 3.9533,-11.6084 2.8642,-11.6084 -0.3428,0 -3.7681,2.0912 -7.6117,4.647 -5.9823,3.9779 -6.8149,4.8778 -5.7826,6.25 5.1004,6.7804 7.5027,6.9427 10.5301,0.7114 z m -425.3946,-27.8584 c -0.3283,-4.5375 -0.9747,-8.6631 -1.4366,-9.1679 -0.945,-1.033 -8.4654,0.8994 -9.4028,2.4161 -1.1959,1.9351 8.0228,15.0018 10.584,15.0018 0.4688,0 0.5837,-3.7125 0.2554,-8.25 z M 970.89907,1063.45 c 1.1196,-1.1107 1.0771,-1.8375 -0.2586,-4.4205 -1.7942,-3.4697 -9.3328,-11.7393 -10.0488,-11.0233 -0.255,0.2549 -0.184,4.4254 0.1577,9.2676 l 0.6213,8.8041 4.0942,-0.6493 c 2.2518,-0.3571 4.6972,-1.2474 5.4342,-1.9786 z m -430.6895,-28.2509 6.8391,-4.6729 -2.3634,-3.0771 c -1.2999,-1.6924 -3.4867,-3.2136 -4.8596,-3.3804 -2.085,-0.2534 -2.8349,0.4171 -4.5526,4.0714 -2.2917,4.8756 -3.8519,11.732 -2.6696,11.732 0.4218,0 3.8446,-2.1029 7.6061,-4.673 z m 225.689,-109.87413 c 3.279,-7.1966 0.1075,-9.6422 -9.6963,-7.4771 -9.2186,2.0358 -9.2871,2.4388 -1.0756,6.3289 4.0878,1.9366 7.9227,3.5603 8.5219,3.6082 0.5992,0.048 1.6117,-1.0591 2.25,-2.46 z"
       id="path224-1" />
  </g>
</svg>
