<svg id="Layer_1" data-name="Layer 1" xmlns="http://www.w3.org/2000/svg" viewBox="0 0 85.69 85.69"><defs><style>.cls-1{fill:none;stroke:#000;stroke-miterlimit:10;stroke-width:0.54px;}</style></defs><path d="M19.69,19.91h.73V31.62h6.52v.67H19.69Z"/><path d="M35.42,19.91h.74l4.38,12.38h-.82L37.21,25c-.51-1.48-1-2.77-1.39-4.29h-.07c-.44,1.52-.88,2.81-1.39,4.29l-2.55,7.34H31ZM33,27.32h5.52V28H33Z"/><path d="M45.24,19.91h.81L51,28.8l1.34,2.43h0c0-1.19-.09-2.36-.09-3.55V19.91H53V32.29h-.81L47.24,23.4,45.91,21h0c0,1.19.1,2.29.1,3.47v7.84h-.73Z"/><path d="M58.65,19.91h2.82c3.81,0,5.58,2.43,5.58,6.15s-1.77,6.23-5.56,6.23H58.65Zm2.74,11.72c3.41,0,4.86-2.33,4.86-5.57s-1.45-5.49-4.86-5.49h-2V31.63Z"/><path d="M18,43c0-3.91,2.13-6.38,5.32-6.38a4.34,4.34,0,0,1,3.27,1.47l-.46.51a3.62,3.62,0,0,0-2.81-1.27c-2.79,0-4.51,2.19-4.51,5.67s1.63,5.74,4.38,5.74a3.9,3.9,0,0,0,2.76-1V43.81H23v-.66h3.67V48a4.73,4.73,0,0,1-3.57,1.4C20,49.42,18,46.9,18,43Z"/><path d="M32.4,36.82h3.49c2.45,0,4,.9,4,3.24s-1.59,3.39-4,3.39H33.18v5.74H32.4Zm3.27,6c2.22,0,3.46-.88,3.46-2.73s-1.24-2.59-3.46-2.59H33.18v5.32Zm.82.26,3.66,6.14h-.9l-3.53-6Z"/><path d="M48.74,36.82h.75l4.38,12.37h-.82l-2.51-7.33c-.51-1.48-.95-2.77-1.39-4.29h-.07c-.44,1.52-.89,2.81-1.39,4.29l-2.55,7.33h-.78Zm-2.41,7.41h5.52v.65H46.33Z"/><path d="M59.67,36.82h7.17v.66h-6.4v5h5.39v.67H60.44v6h-.77Z"/><path d="M19.69,53.72h.73V65.43h6.52v.66H19.69Z"/><path d="M35.42,53.72h.74l4.38,12.37h-.82l-2.51-7.33c-.51-1.48-1-2.77-1.39-4.29h-.07c-.44,1.52-.88,2.81-1.39,4.29l-2.55,7.33H31ZM33,61.13h5.52v.65H33Z"/><path d="M45.67,53.72h3.09c2.54,0,4,1,4,3a2.66,2.66,0,0,1-2.19,2.7v.08c1.83.26,3,1.27,3,3,0,2.38-1.69,3.6-4.56,3.6H45.67Zm2.73,5.46c2.6,0,3.62-.83,3.62-2.43s-1.13-2.37-3.51-2.37H46.44v4.8Zm.37,6.25c2.57,0,4-.89,4-2.92,0-1.82-1.44-2.67-4-2.67H46.44v5.59Z"/><path d="M57.94,67.59h9v.82h-9Z"/><polygon class="cls-1" points="76.4 77.68 10.94 80.66 2.49 10.09 82.03 3.01 76.4 77.68"/></svg>