<?xml version="1.0" encoding="UTF-8" standalone="no"?>
<!-- Created with Inkscape (http://www.inkscape.org/) -->

<svg
   width="210mm"
   height="297mm"
   viewBox="0 0 210 297"
   version="1.1"
   id="svg350"
   inkscape:version="1.2.1 (9c6d41e410, 2022-07-14)"
   sodipodi:docname="papagAI.svg"
   xmlns:inkscape="http://www.inkscape.org/namespaces/inkscape"
   xmlns:sodipodi="http://sodipodi.sourceforge.net/DTD/sodipodi-0.dtd"
   xmlns="http://www.w3.org/2000/svg"
   xmlns:svg="http://www.w3.org/2000/svg">
  <sodipodi:namedview
     id="namedview352"
     pagecolor="#ffffff"
     bordercolor="#666666"
     borderopacity="1.0"
     inkscape:showpageshadow="2"
     inkscape:pageopacity="0.0"
     inkscape:pagecheckerboard="0"
     inkscape:deskcolor="#d1d1d1"
     inkscape:document-units="mm"
     showgrid="false"
     inkscape:zoom="0.5946522"
     inkscape:cx="-280.83643"
     inkscape:cy="558.30955"
     inkscape:window-width="1920"
     inkscape:window-height="1137"
     inkscape:window-x="-8"
     inkscape:window-y="-8"
     inkscape:window-maximized="1"
     inkscape:current-layer="g312" />
  <defs
     id="defs347" />
  <g
     inkscape:label="Layer 1"
     inkscape:groupmode="layer"
     id="layer1">
    <g
       id="g312"
       transform="translate(5.033902,-44.046616)">
      <path
         style="fill:#fdc200;stroke-width:0.264583"
         d="m 79.779288,191.94988 c -3.206072,-2.34869 -6.771203,-6.72049 -8.813742,-10.80801 -4.5774,-9.16026 -5.540393,-23.21143 -2.417712,-35.27716 0.429228,-1.65849 0.780412,-3.05092 0.780412,-3.0943 0,-0.0434 0.650857,0.20898 1.446345,0.56079 4.288124,1.89641 9.544858,2.82956 16.174864,2.8713 l 5.053496,0.0318 -1.432411,1.58515 c -3.637998,4.02593 -4.489821,8.80466 -3.121044,17.50904 0.972426,6.1839 0.857163,10.29591 -0.440047,15.69852 -0.926507,3.85871 -3.16062,8.60679 -5.194276,11.03922 L 81.102205,192.919 Z M 64.383149,129.56556 c 0.0016,-0.87313 0.05088,-1.19842 0.109766,-0.72287 0.05889,0.47555 0.05767,1.18993 -0.0027,1.5875 -0.06037,0.39758 -0.108551,0.008 -0.107067,-0.86463 z"
         id="path326" />
      <path
         style="fill:#fd8309;stroke-width:0.264583"
         d="m 83.615747,144.35226 c -8.330221,-0.7629 -14.946339,-3.26669 -18.874204,-7.14272 -0.868111,-0.85666 -0.991346,-1.11821 -0.852413,-1.80917 0.891307,-4.43275 0.719955,-8.53396 -0.50959,-12.19671 l -0.667179,-1.9875 0.673071,-1.32824 0.673071,-1.32824 1.181859,1.04031 c 2.513222,2.21223 6.261992,2.11867 8.921872,-0.22264 1.636911,-1.44087 2.418141,-3.09227 2.229078,-4.71195 -0.07957,-0.68168 -0.231923,-1.52645 -0.338558,-1.87726 l -0.193882,-0.63784 2.621667,0.17393 c 6.57365,0.43613 12.362924,3.17687 17.444673,8.25862 3.90571,3.90571 7.154148,9.24217 8.988048,14.76537 0.85939,2.58825 1.79722,6.53268 1.60008,6.72981 -0.20514,0.20515 -6.525054,1.38041 -9.536134,1.77336 -3.156583,0.41194 -11.086632,0.70921 -13.361459,0.50087 z m 18.123963,-21.26899 c -0.0899,-0.14552 -0.0374,-0.26459 0.11667,-0.26459 0.15411,0 0.2802,0.11907 0.2802,0.26459 0,0.14552 -0.0525,0.26458 -0.11668,0.26458 -0.0642,0 -0.19026,-0.11906 -0.28019,-0.26458 z m -1.47524,-1.78594 -0.641431,-0.72761 0.727601,0.64144 c 0.68006,0.59951 0.84894,0.81377 0.64144,0.81377 -0.0474,0 -0.37482,-0.32742 -0.72761,-0.7276 z M 58.181996,118.6515 c -0.329107,-0.41965 -0.319749,-0.42901 0.0999,-0.0999 0.44073,0.34564 0.580887,0.56292 0.363125,0.56292 -0.05494,0 -0.2633,-0.20836 -0.463021,-0.46302 z m 38.770071,-0.66146 -0.504028,-0.59532 0.595312,0.50403 c 0.327422,0.27722 0.595313,0.54511 0.595313,0.59532 0,0.21173 -0.212934,0.0554 -0.686597,-0.50403 z m -40.60843,-0.92604 -0.641433,-0.72761 0.727605,0.64143 c 0.400182,0.35279 0.727604,0.68022 0.727604,0.72761 0,0.2075 -0.21426,0.0386 -0.813776,-0.64143 z m 39.409193,-3.96875 c -0.329107,-0.41965 -0.319749,-0.42901 0.0999,-0.0999 0.44073,0.34564 0.580888,0.56292 0.363125,0.56292 -0.05494,0 -0.2633,-0.20836 -0.463021,-0.46302 z m -31.187084,-0.67811 c 0,-0.0455 0.386953,-0.43249 0.859896,-0.85989 l 0.859896,-0.77711 -0.777105,0.8599 c -0.724371,0.80154 -0.942687,0.98151 -0.942687,0.7771 z m 28.682155,-1.83544 -0.504029,-0.59531 0.595313,0.50403 c 0.559445,0.47366 0.715761,0.6866 0.504028,0.6866 -0.05021,0 -0.318098,-0.26789 -0.595312,-0.59532 z m -11.79843,-0.11459 c 0.190995,-0.0764 0.4192,-0.067 0.507119,0.0209 0.08792,0.0879 -0.06835,0.15045 -0.347266,0.13896 -0.308226,-0.0127 -0.370919,-0.0754 -0.159853,-0.15985 z m -4.911329,-0.27832 c 0.691224,-0.0545 1.822318,-0.0545 2.513542,0 0.691224,0.0545 0.125677,0.0991 -1.256771,0.0991 -1.382448,0 -1.947994,-0.0446 -1.256771,-0.0991 z m 0.942579,-7.13001 c 0.190994,-0.0764 0.4192,-0.067 0.507119,0.0209 0.08792,0.0879 -0.06835,0.15045 -0.347266,0.13897 -0.308226,-0.0127 -0.370919,-0.0754 -0.159853,-0.15985 z m -8.21862,-0.25908 c 0.181901,-0.0734 0.479557,-0.0734 0.661458,0 0.181901,0.0734 0.03307,0.13346 -0.330729,0.13346 -0.363802,0 -0.51263,-0.0601 -0.330729,-0.13346 z m 6.085416,0 c 0.181902,-0.0734 0.479558,-0.0734 0.661459,0 0.181901,0.0734 0.03307,0.13346 -0.330729,0.13346 -0.363802,0 -0.512631,-0.0601 -0.33073,-0.13346 z"
         id="path324" />
      <path
         style="fill:#74cf32;stroke-width:0.264583"
         d="m 23.098224,319.93327 c 0,-0.65485 0.0516,-0.92274 0.114662,-0.59532 0.06307,0.32743 0.06307,0.86321 0,1.19063 -0.06306,0.32742 -0.114662,0.0595 -0.114662,-0.59531 z m 191.701246,0.34843 c 0.191,-0.0764 0.4192,-0.067 0.50712,0.0209 0.0879,0.0879 -0.0684,0.15047 -0.34726,0.13898 -0.30823,-0.0127 -0.37092,-0.0754 -0.15986,-0.15986 z M -6.2606026,318.21347 c 0.00148,-0.87312 0.05088,-1.1984 0.1097656,-0.72286 0.058886,0.47556 0.057671,1.18993 -0.0027,1.5875 -0.060371,0.39759 -0.1085506,0.008 -0.1070656,-0.86464 z m 218.1496626,0.21614 c 0.19099,-0.0764 0.4192,-0.067 0.50712,0.0209 0.0879,0.0879 -0.0684,0.15047 -0.34727,0.13899 -0.30823,-0.0127 -0.37092,-0.0754 -0.15985,-0.15986 z m -188.811918,-2.66353 0.05098,-1.78594 0.09449,1.6751 c 0.08644,1.53226 0.132853,1.64508 0.544333,1.32292 0.404818,-0.31694 0.413496,-0.30586 0.08671,0.11084 -0.642477,0.81922 -0.828617,0.50209 -0.77652,-1.32292 z m -29.3583466,-0.8599 c 0,-0.50932 0.05445,-0.71768 0.121,-0.46302 0.06655,0.25466 0.06655,0.67138 0,0.92604 -0.06655,0.25466 -0.121,0.0463 -0.121,-0.46302 z m 35.4345586,0.26459 c 0,-0.36381 0.06005,-0.51263 0.133453,-0.33073 0.0734,0.1819 0.0734,0.47955 0,0.66146 -0.0734,0.1819 -0.133453,0.0331 -0.133453,-0.33073 z M 164.86372,262.62893 c 0.0127,-0.30823 0.0754,-0.37092 0.15985,-0.15986 0.0764,0.191 0.067,0.4192 -0.0209,0.50712 -0.0879,0.0879 -0.15046,-0.0683 -0.13897,-0.34726 z M 140.89404,229.9996 c -5.49892,-2.59649 -12.04996,-7.66271 -15.12852,-11.69959 l -0.98217,-1.28791 -1.06254,2.03573 c -1.09392,2.09583 -3.74969,5.21711 -4.69406,5.51684 -0.64088,0.20341 -1.85619,-0.60729 -3.8901,-2.59498 -4.40957,-4.30939 -7.51031,-11.46229 -8.85951,-20.43747 -0.49697,-3.30599 -0.80938,-7.01145 -0.59112,-7.01145 0.0907,0 1.118,0.82357 2.28286,1.83016 6.54289,5.65392 14.32631,10.70652 23.93333,15.53628 3.05593,1.53631 5.63639,2.99009 5.73434,3.23062 0.0979,0.24052 0.67549,2.04465 1.28342,4.00919 0.60792,1.96453 1.81931,5.39581 2.69198,7.62506 0.87266,2.22925 1.54348,4.09637 1.49071,4.14914 -0.0528,0.0528 -1.04665,-0.35296 -2.20862,-0.90162 z m -56.915883,-4.21228 c 0.56529,-5.4327 5.784543,-8.87525 12.71663,-8.38772 3.035662,0.2135 4.296603,0.4767 8.435533,1.76079 1.86484,0.57856 3.8889,1.07824 4.49792,1.11041 1.03002,0.0544 1.30637,0.25908 3.95977,2.93283 1.56886,1.58089 2.78912,2.9377 2.71168,3.01514 -0.0774,0.0774 -0.79866,0.19536 -1.6027,0.26204 -1.89279,0.15696 -3.88704,-0.50767 -8.61425,-2.8709 -3.66297,-1.8312 -5.73123,-2.57159 -7.385743,-2.64393 -1.344917,-0.0588 -1.513112,-0.004 -0.967531,0.31269 0.547468,0.31824 1.754722,2.73342 1.758696,3.51837 0.0021,0.3933 -0.21277,0.25905 -0.934561,-0.5842 -0.559242,-0.65335 -1.647759,-1.44468 -2.699345,-1.96238 -1.529192,-0.75281 -2.026251,-0.86626 -3.759208,-0.85795 -1.454746,0.007 -2.335914,0.1626 -3.24511,0.57312 -1.573366,0.71041 -3.701259,2.6848 -4.446733,4.12595 l -0.571709,1.10523 z m 20.142803,-17.15275 c -3.60241,-1.84687 -8.843816,-4.9116 -12.170838,-7.11649 -3.648686,-2.41805 -8.782243,-6.47759 -9.039667,-7.14843 -0.07247,-0.18886 0.344435,-0.97627 0.926462,-1.74978 3.134622,-4.16592 5.204556,-9.79625 5.964241,-16.22306 l 0.31275,-2.64584 1.557052,2.91042 c 2.608805,4.87634 5.640658,9.05232 9.96285,13.72254 l 1.92581,2.08088 0.2042,3.23963 c 0.24064,3.81758 0.8419,8.13377 1.56112,11.20649 0.28369,1.21203 0.51581,2.25383 0.51581,2.3151 0,0.21977 -0.41753,0.0762 -1.71979,-0.59146 z M 67.442413,117.59316 c -0.329107,-0.41964 -0.319749,-0.429 0.0999,-0.0999 0.44073,0.34564 0.580887,0.56291 0.363125,0.56291 -0.05494,0 -0.2633,-0.20836 -0.463021,-0.46302 z m 5.060834,-3.24114 c 0,-0.14552 0.126089,-0.26459 0.280199,-0.26459 0.154109,0 0.206613,0.11907 0.116676,0.26459 -0.08994,0.14552 -0.216027,0.26458 -0.280199,0.26458 -0.06417,0 -0.116676,-0.11906 -0.116676,-0.26458 z"
         id="path322"
         sodipodi:nodetypes="ssssssssssssssssssccsssscssssssssssssssscsssssssssssssssssssssccssssscscsssscsscssscssssssssss" />
      <path
         style="fill:#f34713;stroke-width:0.264583"
         d="m 53.42052,136.99582 c -3.900403,-3.0613 -6.007876,-7.71234 -5.704589,-12.58964 0.201099,-3.23394 1.505051,-6.55634 3.478702,-8.86354 l 0.678998,-0.79375 0.723662,0.92604 c 1.921671,2.45909 4.854596,5.14604 7.111965,6.5155 0.4493,0.27257 0.362305,0.4294 -1.027387,1.85208 -1.8366,1.88021 -2.636386,3.02839 -3.714946,5.33322 -1.118108,2.38934 -1.31925,5.4422 -0.483108,7.33243 0.30984,0.70045 0.526687,1.31021 0.481883,1.35501 -0.0448,0.0448 -0.740138,-0.4355 -1.54518,-1.06735 z m 4.589798,-2.39503 c -0.622308,-0.19433 -1.419923,-0.54233 -1.772483,-0.77333 -0.637418,-0.41765 -0.63872,-0.42782 -0.232357,-1.81179 0.666803,-2.27096 1.96665,-4.45636 3.739129,-6.28649 1.326964,-1.37013 1.714521,-1.64046 1.90651,-1.32981 0.522211,0.84495 0.866051,4.15738 0.701054,6.75369 -0.24614,3.87313 -0.230021,3.8399 -1.852179,3.81876 -0.747011,-0.01 -1.867366,-0.1767 -2.489674,-0.37103 z m 41.505731,-14.19297 c -6.55002,-6.99846 -15.061216,-10.7369 -23.223654,-10.20073 -1.842339,0.12102 -2.667619,0.065 -3.370514,-0.22866 -2.10951,-0.88141 -5.343568,-0.28049 -7.243694,1.34595 -1.133367,0.97011 -2.170774,2.79157 -2.170774,3.81139 0,0.33917 -0.407321,1.23034 -0.905158,1.98036 -0.497837,0.75002 -1.111808,1.79703 -1.36438,2.32668 l -0.459218,0.96299 -1.1439,-0.78702 c -1.80548,-1.2422 -4.171392,-3.54337 -5.24346,-5.09996 -0.94887,-1.37772 -0.96928,-1.45478 -0.579088,-2.18649 0.781674,-1.46584 2.790058,-3.75007 4.316516,-4.90937 2.264455,-1.71978 3.729752,-2.49744 6.346534,-3.36818 4.086852,-1.35992 7.959463,-1.65074 12.622464,-0.9479 9.780969,1.47425 17.9069,7.14625 23.012007,16.06266 0.64208,1.12142 1.8282,3.67526 1.68672,3.63166 -0.0312,-0.01 -1.05739,-1.08664 -2.280401,-2.39338 z"
         id="path320" />
      <path
         style="fill:#2cb83e;stroke-width:0.264583"
         d="m 162.4686,219.53235 c -5.32359,-2.96911 -11.22071,-6.20848 -14.4552,-8.12998 -1.74135,-1.10008 -2.90874,-1.81309 -5.13099,-3.39413 -2.18091,-1.61085 -4.217,-2.88247 -5.99371,-4.49415 -0.55976,-0.51068 -1.3154,-1.12596 -1.6792,-1.36728 -3.96031,-3.38368 -6.31332,-5.54814 -9.35898,-8.5871 -1.99256,-1.99564 -5.15615,-5.39844 -5.94542,-6.39497 -0.79632,-1.00543 -0.81626,-1.07662 -0.27224,-0.97185 1.52724,0.29412 7.30176,0.37407 10.14011,0.1404 l 3.16243,-0.26034 c 3.27107,4.21575 7.3863,7.02972 10.72489,10.15208 0.70142,0.68493 1.04511,0.85705 1.33958,0.6709 -1.22353,-0.9545 -3.67236,-4.07229 -5.11387,-5.63091 -1.99792,-1.91857 -3.67241,-4.2659 -5.47026,-6.27638 l -0.92604,-1.03133 -3.95795,0.21631 c -6.01122,0.32853 -10.70415,-0.0672 -17.04146,-1.43715 -4.52861,-1.09989 -5.24169,-1.53013 -7.7809,-2.50493 -2.21949,-0.99382 -4.765976,-2.15883 -6.938913,-3.83474 -0.997275,-0.78732 -3.351289,-3.0741 -3.949253,-3.83646 -1.444776,-1.84199 -2.040959,-2.77839 -2.86372,-4.49792 -1.698989,-3.6863 -2.444197,-9.50364 -1.65696,-13.14342 0.500015,-2.12043 1.842101,-4.5773 3.322744,-6.08273 1.672299,-1.99823 5.722386,-3.34085 8.040522,-3.77627 4.46316,-0.79859 9.69816,-0.3501 15.262,1.69367 4.09597,1.94546 4.52456,1.87807 9.21968,5.67173 5.02024,4.92355 15.63423,14.75605 20.91192,25.21023 2.56,3.99949 4.60264,7.87734 6.31582,11.32882 3.11369,5.38878 3.62568,7.44973 5.18927,11.15586 0.69261,1.64964 1.28394,3.11841 1.31406,3.26393 0.0301,0.14552 0.25229,0.6813 0.49372,1.19062 1.19328,2.5174 5.73709,14.96216 5.73709,15.71299 0,0.5296 -0.27701,0.54082 -0.94162,0.0381 -0.63892,-0.35364 -0.67956,-0.30274 -1.69715,-0.7936 z"
         id="path318"
         sodipodi:nodetypes="ccccccssscccccsscccsccccsscccccssc" />
      <path
         style="fill:#29b343;stroke-width:0.264583"
         d="m -5.7287358,317.8166 c 0,-0.94589 0.04802,-1.33284 0.1067122,-0.8599 0.058692,0.47295 0.058692,1.24685 0,1.7198 -0.058692,0.47294 -0.1067122,0.086 -0.1067122,-0.8599 z m 15.3590327,-1.05833 c 0,-1.52797 0.04373,-2.15305 0.097176,-1.38907 0.053446,0.76399 0.053446,2.01414 0,2.77813 -0.053446,0.76398 -0.097176,0.1389 -0.097176,-1.38906 z m 156.2708731,2.2798 c 0,-0.0558 0.29765,-0.15835 0.66145,-0.22791 0.36381,-0.0695 0.66146,-0.0238 0.66146,0.10147 0,0.12533 -0.29765,0.22789 -0.66146,0.22789 -0.3638,0 -0.66145,-0.0456 -0.66145,-0.10145 z m -176.435316,-0.6923 c 0,-0.36381 0.06005,-0.51263 0.133452,-0.33073 0.0734,0.1819 0.0734,0.47955 0,0.66146 -0.0734,0.1819 -0.133452,0.0331 -0.133452,-0.33073 z m 29.104166,0 c 0,-0.36381 0.06006,-0.51263 0.133453,-0.33073 0.0734,0.1819 0.0734,0.47955 0,0.66146 -0.0734,0.1819 -0.133453,0.0331 -0.133453,-0.33073 z m -30.447971,-0.15434 c 0.01269,-0.30824 0.07539,-0.37091 0.159853,-0.15986 0.07643,0.19101 0.06703,0.41921 -0.02089,0.50713 -0.08792,0.0879 -0.150453,-0.0684 -0.138965,-0.34727 z M 24.48137,316.2291 c 0.26339,-0.29104 0.538422,-0.52917 0.611183,-0.52917 0.07276,0 -0.08321,0.23813 -0.346599,0.52917 -0.26339,0.29104 -0.538422,0.52917 -0.611183,0.52917 -0.07276,0 0.08321,-0.23813 0.346599,-0.52917 z m 1.190625,0.16468 c 0,-0.0549 0.20836,-0.26329 0.463021,-0.46302 0.419645,-0.32909 0.429004,-0.31975 0.0999,0.0999 -0.345643,0.44072 -0.562917,0.58089 -0.562917,0.36312 z m -31.424033,-1.4876 c 0,-0.50932 0.05445,-0.71768 0.1210001,-0.46302 0.06655,0.25466 0.06655,0.67138 0,0.92604 -0.06655,0.25466 -0.1210001,0.0463 -0.1210001,-0.46302 z m 32.361375,0.28287 c -0.08372,-0.13547 -0.05106,-0.30882 0.07258,-0.38523 0.123643,-0.0764 0.224804,0.0344 0.224804,0.2463 0,0.44614 -0.08343,0.48511 -0.297382,0.13893 z M 163.7189,262.45254 c -2.69149,-3.20957 -7.34273,-9.97456 -7.34273,-10.67963 0,-0.17745 -0.10136,-0.36232 -0.22523,-0.41083 -0.12387,-0.0485 -0.53646,-0.62397 -0.91686,-1.27881 -5.92624,-10.20179 -12.06615,-23.66998 -14.45949,-31.71761 -0.31929,-1.07359 -0.64063,-2.10863 -0.71411,-2.30011 -0.0805,-0.20985 0.74237,0.0242 2.07178,0.58928 2.67543,1.1372 8.25327,3.20033 11.3774,4.20827 l 2.29288,0.73976 0.93356,3.19385 c 1.91342,6.54602 3.52034,13.42257 5.72351,24.49281 2.1419,10.7623 2.47954,12.80018 2.13954,12.91351 -0.17253,0.0575 -0.12868,0.24567 0.11375,0.48811 0.35875,0.35874 0.55328,1.15046 0.28268,1.15046 -0.0615,0 -0.63601,-0.62508 -1.27668,-1.38906 z m -7.73961,-42.96144 c -2.75961,-0.90162 -7.87345,-2.91223 -9.74213,-3.65297 -11.47198,-4.60638 -23.54988,-10.70654 -32.7235,-17.57638 -8.25515,-6.30911 -15.230019,-13.87193 -19.189067,-20.80663 -0.655891,-1.14887 -0.679841,-1.25735 -0.182041,-0.82453 0.437208,0.3391 0.533538,0.4273 0.760857,0.60266 0.498922,0.35217 1.114682,0.78651 2.206088,1.46766 4.509473,2.8144 10.472353,5.17039 16.045873,6.33987 l 2.68717,0.56384 2.07671,2.4725 c 4.65025,6.63881 11.14695,11.72468 16.40571,16.05461 5.5314,4.62802 15.79138,11.3711 18.74391,13.05895 2.61428,1.39237 5.5897,2.9901 5.29167,2.97933 -0.14552,-0.005 -1.21708,-0.31081 -2.38125,-0.67899 z"
         id="path316"
         sodipodi:nodetypes="ssssssssssssssssssssssssssssssssssssssssssssssssssssscsssssscccsccssccccccc" />
      <g
         id="g575"
         transform="matrix(0.55000001,0,0,0.55000001,64.764647,-7.3202362)">
        <ellipse
           style="fill:#000000;stroke-width:0.264583"
           id="path497"
           cx="8.7591743"
           cy="224.24649"
           rx="6.2291312"
           ry="6.6740694" />
        <ellipse
           style="fill:#ffffff;stroke-width:0.169479"
           id="path497-9"
           cx="11.352487"
           cy="222.16008"
           rx="3.9900954"
           ry="4.2751021" />
      </g>
      <text
         xml:space="preserve"
         style="font-style:normal;font-weight:normal;font-size:20.6459px;line-height:1.25;font-family:sans-serif;letter-spacing:0px;word-spacing:0px;fill:#74cf32;fill-opacity:1;stroke:none;stroke-width:0.516149"
         x="58.97897"
         y="93.059013"
         id="text338"><tspan
           sodipodi:role="line"
           id="tspan336"
           style="font-style:normal;font-variant:normal;font-weight:normal;font-stretch:normal;font-family:'Hobo Std';-inkscape-font-specification:'Hobo Std';fill:#74cf32;fill-opacity:1;stroke-width:0.516149"
           x="58.97897"
           y="93.059013">PapagAI</tspan></text>
      <text
         xml:space="preserve"
         style="font-style:normal;font-weight:normal;font-size:20.6459px;line-height:1.25;font-family:sans-serif;letter-spacing:0px;word-spacing:0px;fill:#000000;fill-opacity:1;stroke:none;stroke-width:0.516149"
         x="24.124077"
         y="257.75168"
         id="text338-2"><tspan
           sodipodi:role="line"
           id="tspan336-6"
           style="font-style:normal;font-variant:normal;font-weight:normal;font-stretch:normal;font-family:'Hobo Std';-inkscape-font-specification:'Hobo Std';fill:#000000;fill-opacity:1;stroke-width:0.516149"
           x="24.124077"
           y="257.75168">coming soon</tspan></text>
    </g>
  </g>
</svg>
